<svg width="528.319" height="880.156" xmlns="http://www.w3.org/2000/svg"><path fill="#da2527" d="M503.752 250.697h23.567v15.712h-23.567zm0 47.134h23.567v15.712h-23.567z"/><path d="m291.649 125.006 235.67.001v707.014h-47.134v47.135h-235.67V172.141h47.134z" fill="#19b7ec" stroke="#000" stroke-width="2"/><path fill="#da2527" d="M503.752 297.831h23.567v15.712h-23.567zm-259.237 31.424h23.567v15.712h-23.567zm47.134 0h23.567v15.712h-23.567z"/><path fill="#da2527" d="M291.649 344.965h23.567v15.712h-23.567zm141.402-15.71h23.567v15.712h-23.567zm23.567 15.71h23.567v15.712h-23.567zm23.567-15.711h23.567v15.712h-23.567z"/><path fill="#da2527" d="M480.185 344.965h23.567v15.712h-23.567z"/><path fill="#da2527" d="M503.752 344.965h23.567v15.712h-23.567zm-259.237 15.712h23.567v15.712h-23.567zm0 15.712h23.567v15.712h-23.567zm47.134-15.712h23.567v15.712h-23.567zm0 15.712h23.567v15.712h-23.567z"/><path fill="#da2527" d="M291.649 392.099h23.567v15.712h-23.567zm141.402-31.422h23.567v15.712h-23.567zm0 15.712h23.567v15.712h-23.567zm23.567 15.71h23.567v15.712h-23.567zm23.567 0h23.567v15.712h-23.567zm-235.67 31.424h23.567v15.712h-23.567zm23.567-15.712h23.567v15.712h-23.567zm47.134 0h23.567v15.712h-23.567zm-23.567 15.712h23.567v15.712h-23.567z"/><path fill="#da2527" d="M291.649 439.234h23.567v15.712h-23.567zm164.969-31.423h23.567v15.712h-23.567zm-23.567 15.712h23.567v15.712h-23.567zm23.567 15.711h23.567v15.712h-23.567zm47.134-31.423h23.567v15.712h-23.567zm-23.567 15.712h23.567v15.712h-23.567z"/><path fill="#da2527" d="M480.185 439.234h23.567v15.712h-23.567z"/><path fill="#da2527" d="M503.752 439.234h23.567v15.712h-23.567zm-259.237 15.712h23.567v15.712h-23.567zm23.567 0h23.567v15.712h-23.567zm23.567 0h23.567v15.712h-23.567zm23.567 0h23.567v15.712h-23.567zm-70.701 15.712h23.567v15.712h-23.567zm47.134 0h23.567v15.712h-23.567z"/><path fill="#da2527" d="M291.649 486.369h23.567v15.712h-23.567zm141.402-31.423h23.567v15.712h-23.567zm0 15.712h23.567v15.712h-23.567zm23.567-15.712h23.567v15.712h-23.567zm0 31.423h23.567v15.712h-23.567zm47.134-31.423h23.567v15.712h-23.567z"/><path fill="#da2527" d="M480.185 454.946h23.567v15.712h-23.567zm0 15.712h23.567v15.712h-23.567z"/><path fill="#da2527" d="M480.185 486.369h23.567v15.712h-23.567z"/><path fill="#da2527" d="M503.752 486.369h23.567v15.712h-23.567zm-235.67 31.424h23.567v15.712h-23.567zm23.567 15.71h23.567v15.712h-23.567zm23.567-15.71h23.567v15.712h-23.567zm141.402 0h23.567v15.712h-23.567z"/><path fill="#da2527" d="M456.618 533.503h23.567v15.712h-23.567zm23.567 0h23.567v15.712h-23.567z"/><path fill="#da2527" d="M503.752 533.503h23.567v15.712h-23.567z"/><path fill="#da2527" d="M503.752 517.792h23.567v15.712h-23.567zm-259.237 31.423h23.567v15.712h-23.567zm23.567 15.712h23.567v15.712h-23.567zm23.567-15.712h23.567v15.712h-23.567zm23.567 15.712h23.567v15.712h-23.567zm-23.567 15.71h23.567v15.712h-23.567zm141.402-31.422h23.567v15.712h-23.567zm23.567 15.712h23.567v15.712h-23.567z"/><path fill="#da2527" d="M456.618 580.637h23.567v15.712h-23.567zm23.567-31.422h23.567v15.712h-23.567zm23.465 15.712h23.567v15.712H503.65z"/><path fill="#da2527" d="M503.752 580.637h23.567v15.712h-23.567z"/><path fill="#da2527" d="M480.185 580.637h23.567v15.712h-23.567zm-212.103 15.712h23.567v15.712h-23.567zm0 15.712h23.567v15.712h-23.567zm47.134-15.712h23.567v15.712h-23.567zm0 15.712h23.567v15.712h-23.567zm-23.567 15.71h23.567v15.712h-23.567zm164.969-31.422h23.567v15.712h-23.567z"/><path fill="#da2527" d="M456.618 612.06h23.567v15.712h-23.567zm47.032-15.711h23.567v15.712H503.65zm0 15.712h23.567v15.712H503.65z"/><path fill="#da2527" d="M503.752 627.771h23.567v15.712h-23.567z"/><path fill="#da2527" d="M480.185 627.771h23.567v15.712h-23.567zm-235.67 15.712h23.567v15.712h-23.567zm23.567 0h23.567v15.712h-23.567zm0 15.712h23.567v15.712h-23.567zm23.567-15.712h23.567v15.712h-23.567zm23.567 0h23.567v15.712h-23.567zm0 15.712h23.567v15.712h-23.567zm-23.567 15.71h23.567v15.712h-23.567zm-47.134 31.424h23.567v15.712h-23.567zm23.567 0h23.567v15.712h-23.567zm23.567 0h23.567v15.712h-23.567zm23.567 0h23.567v15.712h-23.567z"/><path fill="#da2527" d="M291.649 722.039h23.567v15.712h-23.567zm141.402-15.71h23.567v15.712h-23.567zm23.567 0h23.567v15.712h-23.567z"/><path fill="#da2527" d="M456.618 722.039h23.567v15.712h-23.567zm23.567-15.71h23.567v15.712h-23.567z"/><path fill="#da2527" d="M503.65 706.329h23.567v15.712H503.65z"/><path fill="#da2527" d="M503.752 722.039h23.567v15.712h-23.567z"/><path fill="#da2527" d="M480.185 722.039h23.567v15.712h-23.567zm-235.67 15.712h23.567v15.712h-23.567zm0 15.712h23.567v15.712h-23.567zm23.567 0h23.567v15.712h-23.567zm23.567-15.712h23.567v15.712h-23.567zm0 15.712h23.567v15.712h-23.567z"/><path fill="#da2527" d="M291.649 769.174h23.567v15.712h-23.567zm23.567-15.711h23.567v15.712h-23.567zm117.835-15.712h23.567v15.712h-23.567zm0 15.712h23.567v15.712h-23.567zm23.567 0h23.567v15.712h-23.567z"/><path fill="#da2527" d="M456.618 769.174h23.567v15.712h-23.567zm23.567-31.423h23.567v15.712h-23.567zm0 15.712h23.567v15.712h-23.567z"/><path fill="#da2527" d="M480.185 769.174h23.567v15.712h-23.567z"/><path fill="#da2527" d="M503.65 753.463h23.567v15.712H503.65z"/><path fill="#da2527" d="M503.752 769.174h23.567v15.712h-23.567zm-259.237 31.424h23.567v15.712h-23.567zm23.567 0h23.567v15.712h-23.567zm0-15.712h23.567v15.712h-23.567zm47.134 0h23.567v15.712h-23.567zm0 15.712h23.567v15.712h-23.567zm-23.567 0h23.567v15.712h-23.567z"/><path fill="#da2527" d="M291.649 816.309h23.567v15.712h-23.567zm141.402-15.711h23.567v15.712h-23.567zm23.567-15.712h23.567v15.712h-23.567zm0 15.712h23.567v15.712h-23.567z"/><path fill="#da2527" d="M456.618 816.309h23.567v15.712h-23.567zm47.032-31.423h23.567v15.712H503.65zm0 15.712h23.567v15.712H503.65z"/><path fill="#da2527" d="M503.752 816.309h23.567v15.712h-23.567z"/><path fill="#da2527" d="M480.185 816.309h23.567v15.712h-23.567z"/><path fill="#da2527" d="M480.083 800.598h23.567v15.712h-23.567zm-235.568 31.423h23.567v15.712h-23.567zm23.567 0h23.567v15.712h-23.567zm0 15.712h23.567v15.712h-23.567zm-23.567 0h23.567v15.712h-23.567zm47.134-15.712h23.567v15.712h-23.567zm23.567 0h23.567v15.712h-23.567zm0 15.712h23.567v15.712h-23.567zm-23.567 0h23.567v15.712h-23.567z"/><path fill="#da2527" d="M291.649 863.444h23.567v15.712h-23.567zm141.402-31.423h23.567v15.712h-23.567zm23.567 0h23.567v15.712h-23.567zm0 15.712h23.567v15.712h-23.567zm-23.567 0h23.567v15.712h-23.567z"/><path fill="#da2527" d="M456.618 863.444h23.567v15.712h-23.567zm-23.567-219.961h23.567v15.712h-23.567zm23.567 0h23.567v15.712h-23.567zm0 15.712h23.567v15.712h-23.567z"/><path fill="#da2527" d="M456.618 674.905h23.567v15.712h-23.567zm23.567 0h23.567v15.712h-23.567z"/><path fill="#da2527" d="M503.752 674.905h23.567v15.712h-23.567z"/><path fill="#da2527" d="M503.752 659.195h23.567v15.712h-23.567zm0-15.712h23.567v15.712h-23.567z"/><path fill="#da2527" d="M480.185 643.483h23.567v15.712h-23.567zm-23.567-15.712h23.567v15.712h-23.567zm23.567-251.383h23.567V392.1h-23.567zm0-15.712h23.567v15.712h-23.567z"/><path fill="#da2527" d="M503.752 392.099h23.567v15.712h-23.567zm-23.567-94.268h23.567v15.712h-23.567zm-23.567 0h23.567v15.712h-23.567zm-164.969 0h23.567v15.712h-23.567zm188.536-31.422h23.567v15.712h-23.567zm23.567-15.712h23.567v15.712h-23.567z"/><path fill="#da2527" d="M503.752 266.409h23.567v15.712h-23.567zm-23.567-15.712h23.567v15.712h-23.567zm-23.567 0h23.567v15.712h-23.567zm-23.567 15.712h23.567v15.712h-23.567zm-164.969 0h23.567v15.712h-23.567zm-23.567 0h23.567v15.712h-23.567zm47.134 0h23.567v15.712h-23.567zm0-15.712h23.567v15.712h-23.567zm-23.567-31.422h23.567v15.712h-23.567zm47.134 0h23.567v15.712h-23.567zm-23.567-62.846h23.567v15.712h-23.567z"/><path d="M244.413 612.06h282.804m-235.67-471.342h235.772" fill="none" stroke="#000"/><path fill="#da2527" d="M456.618 156.429h23.567v15.712h-23.567zm23.567 0h23.567v15.712h-23.567z"/><path fill="#da2527" d="M503.752 156.429h23.567v15.712h-23.567z"/><path d="M291.547 156.43h235.772" fill="none" stroke="#000"/><path fill="#da2527" d="M480.185 172.141h23.567v15.712h-23.567zm-47.134 0h23.567v15.712h-23.567zm-141.402 0h23.567v15.712h-23.567zm-47.134 0h23.567v15.712h-23.567z"/><path d="M244.515 187.853h282.804" fill="none" stroke="#000"/><path fill="#da2527" d="M291.649 203.563h23.567v15.712h-23.567zm188.536 0h23.567v15.712h-23.567z"/><path fill="#da2527" d="M503.752 203.563h23.567v15.712h-23.567zm-47.134 0h23.567v15.712h-23.567z"/><path d="M244.515 203.564h282.804" fill="none" stroke="#000"/><path fill="#da2527" d="M503.65 219.275h23.567v15.712H503.65zm-47.032 0h23.567v15.712h-23.567z"/><path d="M244.413 234.987h282.804m-282.804 15.711h282.804" fill="none" stroke="#000"/><path fill="#da2527" d="M315.216 266.409h23.567v15.712h-23.567zm141.402 0h23.567v15.712h-23.567z"/><path d="M244.413 282.12h282.804m-282.804 15.712h282.804m-282.804 31.423h282.804m-282.804 15.711h282.804m-282.804 31.423h282.804M244.413 392.1h282.804m-282.804 31.423h282.804m-282.804 15.711h282.804m-282.702 31.424h282.804M244.413 486.37h282.804m-282.804 31.423h282.804m-282.804 15.711h282.804m-282.804 31.423h282.804m-282.804 15.711h282.804m-282.804 47.134h282.804m-282.804 31.423h282.804m-282.804 15.711h282.804m-282.804 31.423h282.804M244.413 722.04h282.804m-282.804 31.423h282.804m-282.804 15.711h282.804m-282.804 31.424h282.804M244.413 816.31h282.804" fill="none" stroke="#000"/><path fill="#19b7ec" d="M385.917 125.007h47.134v751.912h-47.134z"/><path fill="#da2527" d="M409.484 832.021h23.567v15.712h-23.567zm-23.567 0h23.567v15.712h-23.567zm23.567 15.712h23.567v15.712h-23.567zm-23.567 15.711h23.567v15.712h-23.567z"/><path fill="#da2527" d="M385.917 847.733h23.567v15.712h-23.567zm23.567 15.711h23.567v15.712h-23.567z"/><path d="M244.413 863.444h235.772m-235.772-15.711h235.772" fill="none" stroke="#000"/><path fill="#19b7ec" d="M338.783 125.007h47.134v751.912h-47.134z"/><path d="M150.246 76.22v48.786l377.073.001V.501L125.852.5v75.72Z" fill="#fbd81f" stroke="#000"/><path d="M150.246 76.22V.5m47.134.001v878.655M244.515.501v878.655M291.649.501v878.655M338.783.501v878.655M150.246 76.22h377.073M125.852 50.981h401.467m-401.467-25.24h401.467M433.051.501v878.655M480.185.501v878.655M385.917.501v878.655" fill="none" stroke="#000"/><path d="M101.46 125.006h48.786v754.149H.5V100.613h100.96z" fill="#fbd81f" stroke="#000"/><text xml:space="preserve" style="line-height:1.25;text-align:center" x="137.713" y="20.12" font-weight="400" font-size="18.667" font-family="sans-serif" letter-spacing="0" word-spacing="0" text-anchor="middle"><tspan x="137.713" y="20.12" style="text-align:center">b7</tspan></text><path d="M125.852 76.22V.5" fill="none" stroke="#000"/><text xml:space="preserve" style="line-height:1.25;text-align:center" x="137.713" y="45.36" font-weight="400" font-size="18.667" font-family="sans-serif" letter-spacing="0" word-spacing="0" text-anchor="middle"><tspan x="137.713" y="45.36" style="text-align:center">b6</tspan></text><text xml:space="preserve" style="line-height:1.25;text-align:center" x="137.713" y="70.6" font-weight="400" font-size="18.667" font-family="sans-serif" letter-spacing="0" word-spacing="0" text-anchor="middle"><tspan x="137.713" y="70.6" style="text-align:center">b5</tspan></text><text xml:space="preserve" style="line-height:1.25;text-align:center" x="90.071" y="119.81" font-weight="400" font-size="18.667" font-family="sans-serif" letter-spacing="0" word-spacing="0" text-anchor="middle"><tspan x="90.071" y="119.81" style="text-align:center">b1</tspan></text><path d="M101.46 125.006H.5m25.24-24.393v778.542m25.24-778.542v778.542m25.239-778.542v778.542m25.241-754.149v754.149m425.859-707.014H.5m526.819 47.134H.5m526.819 47.134H.5m526.819 47.134H.5m526.819 47.134H.5m526.819 47.134H.5m526.819 47.135H.5m526.819 47.135H.5m526.819 47.134H.5m526.819 47.134H.5m526.819 47.134H.5m526.819 47.134H.5m526.819 47.134H.5m526.819 47.135H.5m526.819 47.135H.5" fill="none" stroke="#000"/><text xml:space="preserve" style="line-height:1.25;text-align:center" x="63.292" y="119.81" font-weight="400" font-size="18.667" font-family="sans-serif" letter-spacing="0" word-spacing="0" text-anchor="middle"><tspan x="63.292" y="119.81" style="text-align:center">b2</tspan></text><text xml:space="preserve" style="line-height:1.25;text-align:center" x="38.099" y="119.81" font-weight="400" font-size="18.667" font-family="sans-serif" letter-spacing="0" word-spacing="0" text-anchor="middle"><tspan x="38.099" y="119.81" style="text-align:center">b3</tspan></text><text xml:space="preserve" style="line-height:1.25;text-align:center" x="12.513" y="119.81" font-weight="400" font-size="18.667" font-family="sans-serif" letter-spacing="0" word-spacing="0" text-anchor="middle"><tspan x="12.513" y="119.81" style="text-align:center">b4</tspan></text><text xml:space="preserve" style="line-height:1.25;text-align:center" x="90.071" y="155.31" font-weight="400" font-size="18.667" font-family="sans-serif" letter-spacing="0" word-spacing="0" text-anchor="middle"><tspan x="90.071" y="155.31" style="text-align:center">0</tspan></text><text xml:space="preserve" style="line-height:1.25;text-align:center" x="63.292" y="155.31" font-weight="400" font-size="18.667" font-family="sans-serif" letter-spacing="0" word-spacing="0" text-anchor="middle"><tspan x="63.292" y="155.31" style="text-align:center">0</tspan></text><text xml:space="preserve" style="line-height:1.25;text-align:center" x="38.099" y="155.31" font-weight="400" font-size="18.667" font-family="sans-serif" letter-spacing="0" word-spacing="0" text-anchor="middle"><tspan x="38.099" y="155.31" style="text-align:center">0</tspan></text><text xml:space="preserve" style="line-height:1.25;text-align:center" x="12.513" y="155.31" font-weight="400" font-size="18.667" font-family="sans-serif" letter-spacing="0" word-spacing="0" text-anchor="middle"><tspan x="12.513" y="155.31" style="text-align:center">0</tspan></text><text xml:space="preserve" style="line-height:1.25;text-align:center" x="125.853" y="155.256" font-weight="400" font-size="24" font-family="sans-serif" letter-spacing="0" word-spacing="0" text-anchor="middle"><tspan x="125.853" y="155.256" style="text-align:center">0</tspan></text><text xml:space="preserve" style="line-height:1.25;text-align:center" x="90.034" y="202.381" font-weight="400" font-size="18.667" font-family="sans-serif" letter-spacing="0" word-spacing="0" text-anchor="middle"><tspan x="90.034" y="202.381" style="text-align:center">1</tspan></text><text xml:space="preserve" style="line-height:1.25;text-align:center" x="90.071" y="249.515" font-weight="400" font-size="18.667" font-family="sans-serif" letter-spacing="0" word-spacing="0" text-anchor="middle"><tspan x="90.071" y="249.515" style="text-align:center">0</tspan></text><text xml:space="preserve" style="line-height:1.25;text-align:center" x="90.071" y="296.836" font-weight="400" font-size="18.667" font-family="sans-serif" letter-spacing="0" word-spacing="0" text-anchor="middle"><tspan x="90.071" y="296.836" style="text-align:center">1</tspan></text><text xml:space="preserve" style="line-height:1.25;text-align:center" x="90.071" y="343.784" font-weight="400" font-size="18.667" font-family="sans-serif" letter-spacing="0" word-spacing="0" text-anchor="middle"><tspan x="90.071" y="343.784" style="text-align:center">0</tspan></text><text xml:space="preserve" style="line-height:1.25;text-align:center" x="90.071" y="391.105" font-weight="400" font-size="18.667" font-family="sans-serif" letter-spacing="0" word-spacing="0" text-anchor="middle"><tspan x="90.071" y="391.105" style="text-align:center">1</tspan></text><text xml:space="preserve" style="line-height:1.25;text-align:center" x="90.071" y="438.052" font-weight="400" font-size="18.667" font-family="sans-serif" letter-spacing="0" word-spacing="0" text-anchor="middle"><tspan x="90.071" y="438.052" style="text-align:center">0</tspan></text><text xml:space="preserve" style="line-height:1.25;text-align:center" x="90.071" y="485.373" font-weight="400" font-size="18.667" font-family="sans-serif" letter-spacing="0" word-spacing="0" text-anchor="middle"><tspan x="90.071" y="485.373" style="text-align:center">1</tspan></text><text xml:space="preserve" style="line-height:1.25;text-align:center" x="90.071" y="532.125" font-weight="400" font-size="18.667" font-family="sans-serif" letter-spacing="0" word-spacing="0" text-anchor="middle"><tspan x="90.071" y="532.125" style="text-align:center">0</tspan></text><text xml:space="preserve" style="line-height:1.25;text-align:center" x="90.071" y="579.446" font-weight="400" font-size="18.667" font-family="sans-serif" letter-spacing="0" word-spacing="0" text-anchor="middle"><tspan x="90.071" y="579.446" style="text-align:center">1</tspan></text><text xml:space="preserve" style="line-height:1.25;text-align:center" x="90.071" y="626.393" font-weight="400" font-size="18.667" font-family="sans-serif" letter-spacing="0" word-spacing="0" text-anchor="middle"><tspan x="90.071" y="626.393" style="text-align:center">0</tspan></text><text xml:space="preserve" style="line-height:1.25;text-align:center" x="90.071" y="673.714" font-weight="400" font-size="18.667" font-family="sans-serif" letter-spacing="0" word-spacing="0" text-anchor="middle"><tspan x="90.071" y="673.714" style="text-align:center">1</tspan></text><text xml:space="preserve" style="line-height:1.25;text-align:center" x="90.071" y="720.662" font-weight="400" font-size="18.667" font-family="sans-serif" letter-spacing="0" word-spacing="0" text-anchor="middle"><tspan x="90.071" y="720.662" style="text-align:center">0</tspan></text><text xml:space="preserve" style="line-height:1.25;text-align:center" x="90.071" y="767.983" font-weight="400" font-size="18.667" font-family="sans-serif" letter-spacing="0" word-spacing="0" text-anchor="middle"><tspan x="90.071" y="767.983" style="text-align:center">1</tspan></text><text xml:space="preserve" style="line-height:1.25;text-align:center" x="90.071" y="814.93" font-weight="400" font-size="18.667" font-family="sans-serif" letter-spacing="0" word-spacing="0" text-anchor="middle"><tspan x="90.071" y="814.93" style="text-align:center">0</tspan></text><text xml:space="preserve" style="line-height:1.25;text-align:center" x="90.071" y="861.134" font-weight="400" font-size="18.667" font-family="sans-serif" letter-spacing="0" word-spacing="0" text-anchor="middle"><tspan x="90.071" y="861.134" style="text-align:center">1</tspan></text><text xml:space="preserve" style="line-height:1.25;text-align:center" x="63.292" y="202.381" font-weight="400" font-size="18.667" font-family="sans-serif" letter-spacing="0" word-spacing="0" text-anchor="middle"><tspan x="63.292" y="202.381" style="text-align:center">0</tspan></text><text xml:space="preserve" style="line-height:1.25;text-align:center" x="63.292" y="249.702" font-weight="400" font-size="18.667" font-family="sans-serif" letter-spacing="0" word-spacing="0" text-anchor="middle"><tspan x="63.292" y="249.702" style="text-align:center">1</tspan></text><text xml:space="preserve" style="line-height:1.25;text-align:center" x="63.292" y="296.836" font-weight="400" font-size="18.667" font-family="sans-serif" letter-spacing="0" word-spacing="0" text-anchor="middle"><tspan x="63.292" y="296.836" style="text-align:center">1</tspan></text><text xml:space="preserve" style="line-height:1.25;text-align:center" x="63.292" y="343.784" font-weight="400" font-size="18.667" font-family="sans-serif" letter-spacing="0" word-spacing="0" text-anchor="middle"><tspan x="63.292" y="343.784" style="text-align:center">0</tspan></text><text xml:space="preserve" style="line-height:1.25;text-align:center" x="63.292" y="390.918" font-weight="400" font-size="18.667" font-family="sans-serif" letter-spacing="0" word-spacing="0" text-anchor="middle"><tspan x="63.292" y="390.918" style="text-align:center">0</tspan></text><text xml:space="preserve" style="line-height:1.25;text-align:center" x="63.292" y="438.239" font-weight="400" font-size="18.667" font-family="sans-serif" letter-spacing="0" word-spacing="0" text-anchor="middle"><tspan x="63.292" y="438.239" style="text-align:center">1</tspan></text><text xml:space="preserve" style="line-height:1.25;text-align:center" x="63.292" y="485.373" font-weight="400" font-size="18.667" font-family="sans-serif" letter-spacing="0" word-spacing="0" text-anchor="middle"><tspan x="63.292" y="485.373" style="text-align:center">1</tspan></text><text xml:space="preserve" style="line-height:1.25;text-align:center" x="63.292" y="532.125" font-weight="400" font-size="18.667" font-family="sans-serif" letter-spacing="0" word-spacing="0" text-anchor="middle"><tspan x="63.292" y="532.125" style="text-align:center">0</tspan></text><text xml:space="preserve" style="line-height:1.25;text-align:center" x="63.292" y="579.259" font-weight="400" font-size="18.667" font-family="sans-serif" letter-spacing="0" word-spacing="0" text-anchor="middle"><tspan x="63.292" y="579.259" style="text-align:center">0</tspan></text><text xml:space="preserve" style="line-height:1.25;text-align:center" x="63.292" y="626.58" font-weight="400" font-size="18.667" font-family="sans-serif" letter-spacing="0" word-spacing="0" text-anchor="middle"><tspan x="63.292" y="626.58" style="text-align:center">1</tspan></text><text xml:space="preserve" style="line-height:1.25;text-align:center" x="63.292" y="673.714" font-weight="400" font-size="18.667" font-family="sans-serif" letter-spacing="0" word-spacing="0" text-anchor="middle"><tspan x="63.292" y="673.714" style="text-align:center">1</tspan></text><text xml:space="preserve" style="line-height:1.25;text-align:center" x="63.292" y="720.662" font-weight="400" font-size="18.667" font-family="sans-serif" letter-spacing="0" word-spacing="0" text-anchor="middle"><tspan x="63.292" y="720.662" style="text-align:center">0</tspan></text><text xml:space="preserve" style="line-height:1.25;text-align:center" x="63.292" y="767.796" font-weight="400" font-size="18.667" font-family="sans-serif" letter-spacing="0" word-spacing="0" text-anchor="middle"><tspan x="63.292" y="767.796" style="text-align:center">0</tspan></text><text xml:space="preserve" style="line-height:1.25;text-align:center" x="63.292" y="815.117" font-weight="400" font-size="18.667" font-family="sans-serif" letter-spacing="0" word-spacing="0" text-anchor="middle"><tspan x="63.292" y="815.117" style="text-align:center">1</tspan></text><text xml:space="preserve" style="line-height:1.25;text-align:center" x="63.292" y="861.134" font-weight="400" font-size="18.667" font-family="sans-serif" letter-spacing="0" word-spacing="0" text-anchor="middle"><tspan x="63.292" y="861.134" style="text-align:center">1</tspan></text><text xml:space="preserve" style="line-height:1.25;text-align:center" x="38.099" y="202.381" font-weight="400" font-size="18.667" font-family="sans-serif" letter-spacing="0" word-spacing="0" text-anchor="middle"><tspan x="38.099" y="202.381" style="text-align:center">0</tspan></text><text xml:space="preserve" style="line-height:1.25;text-align:center" x="38.099" y="249.515" font-weight="400" font-size="18.667" font-family="sans-serif" letter-spacing="0" word-spacing="0" text-anchor="middle"><tspan x="38.099" y="249.515" style="text-align:center">0</tspan></text><text xml:space="preserve" style="line-height:1.25;text-align:center" x="38.099" y="296.649" font-weight="400" font-size="18.667" font-family="sans-serif" letter-spacing="0" word-spacing="0" text-anchor="middle"><tspan x="38.099" y="296.649" style="text-align:center">0</tspan></text><text xml:space="preserve" style="line-height:1.25;text-align:center" x="38.099" y="343.97" font-weight="400" font-size="18.667" font-family="sans-serif" letter-spacing="0" word-spacing="0" text-anchor="middle"><tspan x="38.099" y="343.97" style="text-align:center">1</tspan></text><text xml:space="preserve" style="line-height:1.25;text-align:center" x="38.099" y="391.105" font-weight="400" font-size="18.667" font-family="sans-serif" letter-spacing="0" word-spacing="0" text-anchor="middle"><tspan x="38.099" y="391.105" style="text-align:center">1</tspan></text><text xml:space="preserve" style="line-height:1.25;text-align:center" x="38.099" y="438.239" font-weight="400" font-size="18.667" font-family="sans-serif" letter-spacing="0" word-spacing="0" text-anchor="middle"><tspan x="38.099" y="438.239" style="text-align:center">1</tspan></text><text xml:space="preserve" style="line-height:1.25;text-align:center" x="38.099" y="485.373" font-weight="400" font-size="18.667" font-family="sans-serif" letter-spacing="0" word-spacing="0" text-anchor="middle"><tspan x="38.099" y="485.373" style="text-align:center">1</tspan></text><text xml:space="preserve" style="line-height:1.25;text-align:center" x="38.099" y="532.125" font-weight="400" font-size="18.667" font-family="sans-serif" letter-spacing="0" word-spacing="0" text-anchor="middle"><tspan x="38.099" y="532.125" style="text-align:center">0</tspan></text><text xml:space="preserve" style="line-height:1.25;text-align:center" x="38.099" y="579.259" font-weight="400" font-size="18.667" font-family="sans-serif" letter-spacing="0" word-spacing="0" text-anchor="middle"><tspan x="38.099" y="579.259" style="text-align:center">0</tspan></text><text xml:space="preserve" style="line-height:1.25;text-align:center" x="38.099" y="626.393" font-weight="400" font-size="18.667" font-family="sans-serif" letter-spacing="0" word-spacing="0" text-anchor="middle"><tspan x="38.099" y="626.393" style="text-align:center">0</tspan></text><text xml:space="preserve" style="line-height:1.25;text-align:center" x="38.099" y="673.528" font-weight="400" font-size="18.667" font-family="sans-serif" letter-spacing="0" word-spacing="0" text-anchor="middle"><tspan x="38.099" y="673.528" style="text-align:center">0</tspan></text><text xml:space="preserve" style="line-height:1.25;text-align:center" x="38.099" y="720.848" font-weight="400" font-size="18.667" font-family="sans-serif" letter-spacing="0" word-spacing="0" text-anchor="middle"><tspan x="38.099" y="720.848" style="text-align:center">1</tspan></text><text xml:space="preserve" style="line-height:1.25;text-align:center" x="38.099" y="767.983" font-weight="400" font-size="18.667" font-family="sans-serif" letter-spacing="0" word-spacing="0" text-anchor="middle"><tspan x="38.099" y="767.983" style="text-align:center">1</tspan></text><text xml:space="preserve" style="line-height:1.25;text-align:center" x="38.099" y="815.117" font-weight="400" font-size="18.667" font-family="sans-serif" letter-spacing="0" word-spacing="0" text-anchor="middle"><tspan x="38.099" y="815.117" style="text-align:center">1</tspan></text><text xml:space="preserve" style="line-height:1.25;text-align:center" x="38.099" y="861.134" font-weight="400" font-size="18.667" font-family="sans-serif" letter-spacing="0" word-spacing="0" text-anchor="middle"><tspan x="38.099" y="861.134" style="text-align:center">1</tspan></text><text xml:space="preserve" style="line-height:1.25;text-align:center" x="12.513" y="202.381" font-weight="400" font-size="18.667" font-family="sans-serif" letter-spacing="0" word-spacing="0" text-anchor="middle"><tspan x="12.513" y="202.381" style="text-align:center">0</tspan></text><text xml:space="preserve" style="line-height:1.25;text-align:center" x="12.513" y="249.515" font-weight="400" font-size="18.667" font-family="sans-serif" letter-spacing="0" word-spacing="0" text-anchor="middle"><tspan x="12.513" y="249.515" style="text-align:center">0</tspan></text><text xml:space="preserve" style="line-height:1.25;text-align:center" x="12.513" y="296.649" font-weight="400" font-size="18.667" font-family="sans-serif" letter-spacing="0" word-spacing="0" text-anchor="middle"><tspan x="12.513" y="296.649" style="text-align:center">0</tspan></text><text xml:space="preserve" style="line-height:1.25;text-align:center" x="12.513" y="343.784" font-weight="400" font-size="18.667" font-family="sans-serif" letter-spacing="0" word-spacing="0" text-anchor="middle"><tspan x="12.513" y="343.784" style="text-align:center">0</tspan></text><text xml:space="preserve" style="line-height:1.25;text-align:center" x="12.513" y="390.918" font-weight="400" font-size="18.667" font-family="sans-serif" letter-spacing="0" word-spacing="0" text-anchor="middle"><tspan x="12.513" y="390.918" style="text-align:center">0</tspan></text><text xml:space="preserve" style="line-height:1.25;text-align:center" x="12.513" y="438.052" font-weight="400" font-size="18.667" font-family="sans-serif" letter-spacing="0" word-spacing="0" text-anchor="middle"><tspan x="12.513" y="438.052" style="text-align:center">0</tspan></text><text xml:space="preserve" style="line-height:1.25;text-align:center" x="12.513" y="485.186" font-weight="400" font-size="18.667" font-family="sans-serif" letter-spacing="0" word-spacing="0" text-anchor="middle"><tspan x="12.513" y="485.186" style="text-align:center">0</tspan></text><text xml:space="preserve" style="line-height:1.25;text-align:center" x="12.513" y="532.311" font-weight="400" font-size="18.667" font-family="sans-serif" letter-spacing="0" word-spacing="0" text-anchor="middle"><tspan x="12.513" y="532.311" style="text-align:center">1</tspan></text><text xml:space="preserve" style="line-height:1.25;text-align:center" x="12.513" y="579.446" font-weight="400" font-size="18.667" font-family="sans-serif" letter-spacing="0" word-spacing="0" text-anchor="middle"><tspan x="12.513" y="579.446" style="text-align:center">1</tspan></text><text xml:space="preserve" style="line-height:1.25;text-align:center" x="12.513" y="626.58" font-weight="400" font-size="18.667" font-family="sans-serif" letter-spacing="0" word-spacing="0" text-anchor="middle"><tspan x="12.513" y="626.58" style="text-align:center">1</tspan></text><text xml:space="preserve" style="line-height:1.25;text-align:center" x="12.513" y="673.714" font-weight="400" font-size="18.667" font-family="sans-serif" letter-spacing="0" word-spacing="0" text-anchor="middle"><tspan x="12.513" y="673.714" style="text-align:center">1</tspan></text><text xml:space="preserve" style="line-height:1.25;text-align:center" x="12.513" y="720.848" font-weight="400" font-size="18.667" font-family="sans-serif" letter-spacing="0" word-spacing="0" text-anchor="middle"><tspan x="12.513" y="720.848" style="text-align:center">1</tspan></text><text xml:space="preserve" style="line-height:1.25;text-align:center" x="12.513" y="767.983" font-weight="400" font-size="18.667" font-family="sans-serif" letter-spacing="0" word-spacing="0" text-anchor="middle"><tspan x="12.513" y="767.983" style="text-align:center">1</tspan></text><text xml:space="preserve" style="line-height:1.25;text-align:center" x="12.513" y="815.117" font-weight="400" font-size="18.667" font-family="sans-serif" letter-spacing="0" word-spacing="0" text-anchor="middle"><tspan x="12.513" y="815.117" style="text-align:center">1</tspan></text><text xml:space="preserve" style="line-height:1.25;text-align:center" x="12.513" y="861.134" font-weight="400" font-size="18.667" font-family="sans-serif" letter-spacing="0" word-spacing="0" text-anchor="middle"><tspan x="12.513" y="861.134" style="text-align:center">1</tspan></text><text xml:space="preserve" style="line-height:1.25;text-align:center" x="127.389" y="202.327" font-weight="400" font-size="24" font-family="sans-serif" letter-spacing="0" word-spacing="0" text-anchor="middle"><tspan x="127.389" y="202.327" style="text-align:center">1</tspan></text><text xml:space="preserve" style="line-height:1.25;text-align:center" x="125.901" y="249.462" font-weight="400" font-size="24" font-family="sans-serif" letter-spacing="0" word-spacing="0" text-anchor="middle"><tspan x="125.901" y="249.462" style="text-align:center">2</tspan></text><text xml:space="preserve" style="line-height:1.25;text-align:center" x="125.997" y="296.596" font-weight="400" font-size="24" font-family="sans-serif" letter-spacing="0" word-spacing="0" text-anchor="middle"><tspan x="125.997" y="296.596" style="text-align:center">3</tspan></text><text xml:space="preserve" style="line-height:1.25;text-align:center" x="125.841" y="343.97" font-weight="400" font-size="24" font-family="sans-serif" letter-spacing="0" word-spacing="0" text-anchor="middle"><tspan x="125.841" y="343.97" style="text-align:center">4</tspan></text><text xml:space="preserve" style="line-height:1.25;text-align:center" x="125.781" y="390.865" font-weight="400" font-size="24" font-family="sans-serif" letter-spacing="0" word-spacing="0" text-anchor="middle"><tspan x="125.781" y="390.865" style="text-align:center">5</tspan></text><text xml:space="preserve" style="line-height:1.25;text-align:center" x="125.757" y="437.999" font-weight="400" font-size="24" font-family="sans-serif" letter-spacing="0" word-spacing="0" text-anchor="middle"><tspan x="125.757" y="437.999" style="text-align:center">6</tspan></text><text xml:space="preserve" style="line-height:1.25;text-align:center" x="125.913" y="485.373" font-weight="400" font-size="24" font-family="sans-serif" letter-spacing="0" word-spacing="0" text-anchor="middle"><tspan x="125.913" y="485.373" style="text-align:center">7</tspan></text><text xml:space="preserve" style="line-height:1.25;text-align:center" x="125.865" y="532.071" font-weight="400" font-size="24" font-family="sans-serif" letter-spacing="0" word-spacing="0" text-anchor="middle"><tspan x="125.865" y="532.071" style="text-align:center">8</tspan></text><text xml:space="preserve" style="line-height:1.25;text-align:center" x="125.877" y="579.206" font-weight="400" font-size="24" font-family="sans-serif" letter-spacing="0" word-spacing="0" text-anchor="middle"><tspan x="125.877" y="579.206" style="text-align:center">9</tspan></text><text xml:space="preserve" style="line-height:1.25;text-align:center" x="125.373" y="626.34" font-weight="400" font-size="24" font-family="sans-serif" letter-spacing="0" word-spacing="0" text-anchor="middle"><tspan x="125.373" y="626.34" style="text-align:center">10</tspan></text><text xml:space="preserve" style="line-height:1.25;text-align:center" x="127.389" y="673.714" font-weight="400" font-size="24" font-family="sans-serif" letter-spacing="0" word-spacing="0" text-anchor="middle"><tspan x="127.389" y="673.714" style="text-align:center">11</tspan></text><text xml:space="preserve" style="line-height:1.25;text-align:center" x="125.409" y="720.848" font-weight="400" font-size="24" font-family="sans-serif" letter-spacing="0" word-spacing="0" text-anchor="middle"><tspan x="125.409" y="720.848" style="text-align:center">12</tspan></text><text xml:space="preserve" style="line-height:1.25;text-align:center" x="125.469" y="767.743" font-weight="400" font-size="24" font-family="sans-serif" letter-spacing="0" word-spacing="0" text-anchor="middle"><tspan x="125.469" y="767.743" style="text-align:center">13</tspan></text><text xml:space="preserve" style="line-height:1.25;text-align:center" x="125.025" y="815.117" font-weight="400" font-size="24" font-family="sans-serif" letter-spacing="0" word-spacing="0" text-anchor="middle"><tspan x="125.025" y="815.117" style="text-align:center">14</tspan></text><text xml:space="preserve" style="line-height:1.25;text-align:center" x="125.469" y="860.894" font-weight="400" font-size="24" font-family="sans-serif" letter-spacing="0" word-spacing="0" text-anchor="middle"><tspan x="125.469" y="860.894" style="text-align:center">15</tspan></text><path d="M150.246 125.006v751.913" fill="none" stroke="#000"/><text xml:space="preserve" style="line-height:1.25;text-align:center" x="160.713" y="20.12" font-weight="400" font-size="18.667" font-family="sans-serif" letter-spacing="0" word-spacing="0" text-anchor="middle"><tspan x="160.713" y="20.12" style="text-align:center">0</tspan></text><text xml:space="preserve" style="line-height:1.25;text-align:center" x="173.713" y="45.36" font-weight="400" font-size="18.667" font-family="sans-serif" letter-spacing="0" word-spacing="0" text-anchor="middle"><tspan x="173.713" y="45.36" style="text-align:center">0</tspan></text><text xml:space="preserve" style="line-height:1.25;text-align:center" x="187.806" y="70.273" font-weight="400" font-size="18.667" font-family="sans-serif" letter-spacing="0" word-spacing="0" text-anchor="middle"><tspan x="187.806" y="70.273" style="text-align:center">0</tspan></text><text xml:space="preserve" style="line-height:1.25;text-align:center" x="208.969" y="20.05" font-weight="400" font-size="18.667" font-family="sans-serif" letter-spacing="0" word-spacing="0" text-anchor="middle"><tspan x="208.969" y="20.05" style="text-align:center">0</tspan></text><text xml:space="preserve" style="line-height:1.25;text-align:center" x="221.969" y="45.29" font-weight="400" font-size="18.667" font-family="sans-serif" letter-spacing="0" word-spacing="0" text-anchor="middle"><tspan x="221.969" y="45.29" style="text-align:center">0</tspan></text><text xml:space="preserve" style="line-height:1.25;text-align:center" x="236.062" y="70.203" font-weight="400" font-size="18.667" font-family="sans-serif" letter-spacing="0" word-spacing="0" text-anchor="middle"><tspan x="236.062" y="70.203" style="text-align:center">1</tspan></text><text xml:space="preserve" style="line-height:1.25;text-align:center" x="254.535" y="20.12" font-weight="400" font-size="18.667" font-family="sans-serif" letter-spacing="0" word-spacing="0" text-anchor="middle"><tspan x="254.535" y="20.12" style="text-align:center">0</tspan></text><text xml:space="preserve" style="line-height:1.25;text-align:center" x="267.535" y="45.36" font-weight="400" font-size="18.667" font-family="sans-serif" letter-spacing="0" word-spacing="0" text-anchor="middle"><tspan x="267.535" y="45.36" style="text-align:center">1</tspan></text><text xml:space="preserve" style="line-height:1.25;text-align:center" x="281.628" y="70.273" font-weight="400" font-size="18.667" font-family="sans-serif" letter-spacing="0" word-spacing="0" text-anchor="middle"><tspan x="281.628" y="70.273" style="text-align:center">0</tspan></text><text xml:space="preserve" style="line-height:1.25;text-align:center" x="303.237" y="20.12" font-weight="400" font-size="18.667" font-family="sans-serif" letter-spacing="0" word-spacing="0" text-anchor="middle"><tspan x="303.237" y="20.12" style="text-align:center">0</tspan></text><text xml:space="preserve" style="line-height:1.25;text-align:center" x="316.237" y="45.36" font-weight="400" font-size="18.667" font-family="sans-serif" letter-spacing="0" word-spacing="0" text-anchor="middle"><tspan x="316.237" y="45.36" style="text-align:center">1</tspan></text><text xml:space="preserve" style="line-height:1.25;text-align:center" x="330.33" y="70.273" font-weight="400" font-size="18.667" font-family="sans-serif" letter-spacing="0" word-spacing="0" text-anchor="middle"><tspan x="330.33" y="70.273" style="text-align:center">1</tspan></text><text xml:space="preserve" style="line-height:1.25;text-align:center" x="173.813" y="109.193" font-weight="400" font-size="24" font-family="sans-serif" letter-spacing="0" word-spacing="0" text-anchor="middle"><tspan x="173.813" y="109.193" style="text-align:center">0</tspan></text><text xml:space="preserve" style="line-height:1.25;text-align:center" x="222.484" y="109.193" font-weight="400" font-size="24" font-family="sans-serif" letter-spacing="0" word-spacing="0" text-anchor="middle"><tspan x="222.484" y="109.193" style="text-align:center">1</tspan></text><text xml:space="preserve" style="line-height:1.25;text-align:center" x="268.129" y="109.193" font-weight="400" font-size="24" font-family="sans-serif" letter-spacing="0" word-spacing="0" text-anchor="middle"><tspan x="268.129" y="109.193" style="text-align:center">2</tspan></text><text xml:space="preserve" style="line-height:1.25;text-align:center" x="315.36" y="109.193" font-weight="400" font-size="24" font-family="sans-serif" letter-spacing="0" word-spacing="0" text-anchor="middle"><tspan x="315.36" y="109.193" style="text-align:center">3</tspan></text><text xml:space="preserve" style="line-height:1.25;text-align:center" x="363.022" y="109.193" font-weight="400" font-size="24" font-family="sans-serif" letter-spacing="0" word-spacing="0" text-anchor="middle"><tspan x="363.022" y="109.193" style="text-align:center">4</tspan></text><text xml:space="preserve" style="line-height:1.25;text-align:center" x="408.03" y="109.193" font-weight="400" font-size="24" font-family="sans-serif" letter-spacing="0" word-spacing="0" text-anchor="middle"><tspan x="408.03" y="109.193" style="text-align:center">5</tspan></text><text xml:space="preserve" style="line-height:1.25;text-align:center" x="456.238" y="109.193" font-weight="400" font-size="24" font-family="sans-serif" letter-spacing="0" word-spacing="0" text-anchor="middle"><tspan x="456.238" y="109.193" style="text-align:center">6</tspan></text><text xml:space="preserve" style="line-height:1.25;text-align:center" x="501.136" y="109.193" font-weight="400" font-size="24" font-family="sans-serif" letter-spacing="0" word-spacing="0" text-anchor="middle"><tspan x="501.136" y="109.193" style="text-align:center">7</tspan></text><path d="M150.246 879.155h377.073v-47.134" fill="none" stroke="#000"/><g transform="translate(-.435 -.162)"><text xml:space="preserve" style="line-height:1.25;text-align:center" x="349.239" y="20.119" font-weight="400" font-size="18.667" font-family="sans-serif" letter-spacing="0" word-spacing="0" text-anchor="middle"><tspan x="349.239" y="20.119" style="text-align:center">1</tspan></text><text xml:space="preserve" style="line-height:1.25;text-align:center" x="362.239" y="45.359" font-weight="400" font-size="18.667" font-family="sans-serif" letter-spacing="0" word-spacing="0" text-anchor="middle"><tspan x="362.239" y="45.359" style="text-align:center">0</tspan></text><text xml:space="preserve" style="line-height:1.25;text-align:center" x="376.332" y="70.272" font-weight="400" font-size="18.667" font-family="sans-serif" letter-spacing="0" word-spacing="0" text-anchor="middle"><tspan x="376.332" y="70.272" style="text-align:center">0</tspan></text></g><g transform="translate(.01 .002)"><text xml:space="preserve" style="line-height:1.25;text-align:center" x="397.495" y="20.049" font-weight="400" font-size="18.667" font-family="sans-serif" letter-spacing="0" word-spacing="0" text-anchor="middle"><tspan x="397.495" y="20.049" style="text-align:center">1</tspan></text><text xml:space="preserve" style="line-height:1.25;text-align:center" x="410.495" y="45.289" font-weight="400" font-size="18.667" font-family="sans-serif" letter-spacing="0" word-spacing="0" text-anchor="middle"><tspan x="410.495" y="45.289" style="text-align:center">0</tspan></text><text xml:space="preserve" style="line-height:1.25;text-align:center" x="424.588" y="70.202" font-weight="400" font-size="18.667" font-family="sans-serif" letter-spacing="0" word-spacing="0" text-anchor="middle"><tspan x="424.588" y="70.202" style="text-align:center">1</tspan></text></g><g transform="translate(.01 -.162)"><text xml:space="preserve" style="line-height:1.25;text-align:center" x="443.061" y="20.119" font-weight="400" font-size="18.667" font-family="sans-serif" letter-spacing="0" word-spacing="0" text-anchor="middle"><tspan x="443.061" y="20.119" style="text-align:center">1</tspan></text><text xml:space="preserve" style="line-height:1.25;text-align:center" x="456.061" y="45.359" font-weight="400" font-size="18.667" font-family="sans-serif" letter-spacing="0" word-spacing="0" text-anchor="middle"><tspan x="456.061" y="45.359" style="text-align:center">1</tspan></text><text xml:space="preserve" style="line-height:1.25;text-align:center" x="470.154" y="70.272" font-weight="400" font-size="18.667" font-family="sans-serif" letter-spacing="0" word-spacing="0" text-anchor="middle"><tspan x="470.154" y="70.272" style="text-align:center">0</tspan></text></g><g transform="translate(.01 -.068)"><text xml:space="preserve" style="line-height:1.25;text-align:center" x="491.763" y="20.119" font-weight="400" font-size="18.667" font-family="sans-serif" letter-spacing="0" word-spacing="0" text-anchor="middle"><tspan x="491.763" y="20.119" style="text-align:center">1</tspan></text><text xml:space="preserve" style="line-height:1.25;text-align:center" x="504.763" y="45.359" font-weight="400" font-size="18.667" font-family="sans-serif" letter-spacing="0" word-spacing="0" text-anchor="middle"><tspan x="504.763" y="45.359" style="text-align:center">1</tspan></text><text xml:space="preserve" style="line-height:1.25;text-align:center" x="518.856" y="70.272" font-weight="400" font-size="18.667" font-family="sans-serif" letter-spacing="0" word-spacing="0" text-anchor="middle"><tspan x="518.856" y="70.272" style="text-align:center">1</tspan></text></g><path d="M268.082 172.141v707.015m47.134-754.15v754.15m141.402-754.149v754.149m47.134-754.149v707.014" fill="none" stroke="#000"/><path d="m291.649 125.006 235.67.001v707.014h-47.134v47.135h-235.67V172.141h47.134z" fill="none" stroke="#000" stroke-width="2"/><path d="M409.484 832.021v47.135" fill="none" stroke="#000"/></svg>