<svg xmlns="http://www.w3.org/2000/svg" width="554.983" height="187.587"><path fill="#56a639" stroke="#000" stroke-width="1.002" d="M.5 37.69h35.903v34.616H.5z"/><text xml:space="preserve" x="22.328" y="63.67" font-family="sans-serif" font-size="18.667" font-weight="400" letter-spacing="0" style="line-height:1.25" transform="translate(-2.974 -2.073)" word-spacing="0"><tspan x="22.328" y="63.67" font-family="Arial" font-weight="700" style="-inkscape-font-specification:'Arial Bold';text-align:center" text-anchor="middle">b1</tspan></text><path fill="#56a639" stroke="#000" stroke-width="1.002" d="M36.403 37.69h35.903v34.616H36.403z"/><text xml:space="preserve" x="57.183" y="63.67" font-family="sans-serif" font-size="18.667" font-weight="400" letter-spacing="0" style="line-height:1.25" transform="translate(-2.974 -2.073)" word-spacing="0"><tspan x="57.183" y="63.67" font-family="Arial" font-weight="700" style="-inkscape-font-specification:'Arial Bold';text-align:center" text-anchor="middle">b2</tspan></text><path fill="#56a639" stroke="#000" stroke-width="1.002" d="M72.306 37.69h35.903v34.616H72.306z"/><text xml:space="preserve" x="93.017" y="63.665" font-family="sans-serif" font-size="18.667" font-weight="400" letter-spacing="0" style="line-height:1.25" transform="translate(-2.974 -2.073)" word-spacing="0"><tspan x="93.017" y="63.665" font-family="Arial" font-weight="700" style="-inkscape-font-specification:'Arial Bold';text-align:center" text-anchor="middle">b3</tspan></text><path fill="#56a639" stroke="#000" stroke-width="1.002" d="M108.208 37.69h35.903v34.616h-35.903z"/><text xml:space="preserve" x="128.733" y="63.67" font-family="sans-serif" font-size="18.667" font-weight="400" letter-spacing="0" style="line-height:1.25" transform="translate(-2.974 -2.073)" word-spacing="0"><tspan x="128.733" y="63.67" font-family="Arial" font-weight="700" style="-inkscape-font-specification:'Arial Bold';text-align:center" text-anchor="middle">b4</tspan></text><path fill="#f9dc2f" stroke="#000" stroke-width="1.002" d="M144.111 37.69h35.903v34.616h-35.903z"/><text xml:space="preserve" x="164.704" y="63.638" font-family="sans-serif" font-size="18.667" font-weight="400" letter-spacing="0" style="line-height:1.25" transform="translate(-2.974 -2.073)" word-spacing="0"><tspan x="164.704" y="63.638" font-family="Arial" font-weight="700" style="-inkscape-font-specification:'Arial Bold';text-align:center" text-anchor="middle">b5</tspan></text><path fill="#f9dc2f" stroke="#000" stroke-width="1.002" d="M180.014 37.69h35.903v34.616h-35.903z"/><text xml:space="preserve" x="200.656" y="63.665" font-family="sans-serif" font-size="18.667" font-weight="400" letter-spacing="0" style="line-height:1.25" transform="translate(-2.974 -2.073)" word-spacing="0"><tspan x="200.656" y="63.665" font-family="Arial" font-weight="700" style="-inkscape-font-specification:'Arial Bold';text-align:center" text-anchor="middle">b6</tspan></text><path fill="#f9dc2f" stroke="#000" stroke-width="1.002" d="M215.916 37.69h35.903v34.616h-35.903z"/><text xml:space="preserve" x="236.641" y="63.643" font-family="sans-serif" font-size="18.667" font-weight="400" letter-spacing="0" style="line-height:1.25" transform="translate(-2.974 -2.073)" word-spacing="0"><tspan x="236.641" y="63.643" font-family="Arial" font-weight="700" style="-inkscape-font-specification:'Arial Bold';text-align:center" text-anchor="middle">b7</tspan></text><path fill="#f13427" stroke="#000" stroke-width="1.002" d="M.5 77.261v6.367h67.11v43.614h170.991v4.52l16.106-7.674-16.106-7.734v4.52H73.98V83.628h70.131v-6.367z"/><text xml:space="preserve" x="53.868" y="126.298" font-family="sans-serif" font-size="53.333" font-weight="400" letter-spacing="0" style="line-height:1.25" transform="translate(-2.974 -2.073)" word-spacing="0"><tspan x="53.868" y="126.298">j</tspan></text><text xml:space="preserve" x="257.692" y="76.07" font-family="sans-serif" font-size="53.333" font-weight="400" letter-spacing="0" style="line-height:1.25" transform="translate(-2.974 -2.073)" word-spacing="0"><tspan x="257.692" y="76.07">i</tspan></text><path fill="#41beee" stroke="#000" stroke-width="1.002" d="M144.111 22.966v6.367h175.292v4.52l16.106-7.674-16.106-7.733v4.52zM346.787.501h207.695v16.214H346.787z"/><text xml:space="preserve" x="355.938" y="15.181" font-family="sans-serif" font-size="12" font-weight="400" letter-spacing="0" style="line-height:1.25" transform="translate(-2.974 -2.073)" word-spacing="0"><tspan x="355.938" y="15.181">b7</tspan></text><path fill="#41beee" stroke="#000" stroke-width="1.002" d="M346.787 16.715h207.695V32.93H346.787zm0 16.215h207.695v16.213H346.787z"/><text xml:space="preserve" x="355.938" y="31.395" font-family="sans-serif" font-size="12" font-weight="400" letter-spacing="0" style="line-height:1.25" transform="translate(-2.974 -2.073)" word-spacing="0"><tspan x="355.938" y="31.395">b6</tspan></text><text xml:space="preserve" x="355.938" y="47.609" font-family="sans-serif" font-size="12" font-weight="400" letter-spacing="0" style="line-height:1.25" transform="translate(-2.974 -2.073)" word-spacing="0"><tspan x="355.938" y="47.609">b5</tspan></text><path fill="#f13427" stroke="#000" stroke-width="1.002" d="M282.016 107.51v79.577h-16.214V107.51zm16.214 0v79.577h-16.214V107.51zm16.214 0v79.577H298.23V107.51zm16.214 0v79.577h-16.214V107.51z"/><text xml:space="preserve" x="269.371" y="128.859" font-family="sans-serif" font-size="12" font-weight="400" letter-spacing="0" style="line-height:1.25" transform="translate(-2.974 -2.073)" word-spacing="0"><tspan x="269.371" y="128.859">b4</tspan></text><text xml:space="preserve" x="285.585" y="128.859" font-family="sans-serif" font-size="12" font-weight="400" letter-spacing="0" style="line-height:1.25" transform="translate(-2.974 -2.073)" word-spacing="0"><tspan x="285.585" y="128.859">b3</tspan></text><text xml:space="preserve" x="301.799" y="128.859" font-family="sans-serif" font-size="12" font-weight="400" letter-spacing="0" style="line-height:1.25" transform="translate(-2.974 -2.073)" word-spacing="0"><tspan x="301.799" y="128.859">b2</tspan></text><text xml:space="preserve" x="318.013" y="128.859" font-family="sans-serif" font-size="12" font-weight="400" letter-spacing="0" style="line-height:1.25" transform="translate(-2.974 -2.073)" word-spacing="0"><tspan x="318.013" y="128.859">b1</tspan></text><path fill="none" stroke="#000" d="M265.802 134.78h108.256V.5"/></svg>