<svg width="339.718" height="77.39" xmlns="http://www.w3.org/2000/svg"><g transform="translate(-3.055 -4.025)"><path fill="#8fe2fa" stroke="#000" d="M3.555 4.525h42.34v29.412H3.555zm42.34 0h42.34v29.412h-42.34z"/><path fill="#8fe2fa" stroke="#000" d="M88.235 4.525h42.34v29.412h-42.34zm42.34 0h42.34v29.412h-42.34z"/><path fill="#8fe2fa" stroke="#000" d="M172.914 4.525h42.34v29.412h-42.34zm42.34 0h42.34v29.412h-42.34z"/><path fill="#8fe2fa" stroke="#000" d="M257.594 4.525h42.34v29.412h-42.34zm42.34 0h42.34v29.412h-42.34z"/><text xml:space="preserve" style="line-height:1.25" x="19.951" y="24.467" font-weight="400" font-size="14.667" font-family="sans-serif" letter-spacing="0" word-spacing="0"><tspan x="19.951" y="24.467">P</tspan></text><text xml:space="preserve" style="line-height:1.25" x="63.809" y="24.467" font-weight="400" font-size="14.667" font-family="sans-serif" letter-spacing="0" word-spacing="0"><tspan x="63.809" y="24.467">1</tspan></text><text xml:space="preserve" style="line-height:1.25" x="100.803" y="24.54" font-weight="400" font-size="14.667" font-family="sans-serif" letter-spacing="0" word-spacing="0"><tspan x="100.803" y="24.54">E2</tspan></text><text xml:space="preserve" style="line-height:1.25" x="144.352" y="24.467" font-weight="400" font-size="14.667" font-family="sans-serif" letter-spacing="0" word-spacing="0"><tspan x="144.352" y="24.467">E1</tspan></text><text xml:space="preserve" style="line-height:1.25" x="185.46" y="24.474" font-weight="400" font-size="14.667" font-family="sans-serif" letter-spacing="0" word-spacing="0"><tspan x="185.46" y="24.474">E0</tspan></text><text xml:space="preserve" style="line-height:1.25" x="227.338" y="24.54" font-weight="400" font-size="14.667" font-family="sans-serif" letter-spacing="0" word-spacing="0"><tspan x="227.338" y="24.54">R2</tspan></text><text xml:space="preserve" style="line-height:1.25" x="270.888" y="24.467" font-weight="400" font-size="14.667" font-family="sans-serif" letter-spacing="0" word-spacing="0"><tspan x="270.888" y="24.467">R1</tspan></text><text xml:space="preserve" style="line-height:1.25" x="311.996" y="24.474" font-weight="400" font-size="14.667" font-family="sans-serif" letter-spacing="0" word-spacing="0"><tspan x="311.996" y="24.474">R0</tspan></text><path d="M103.587 39.754c20.736 9.7 42.906-4.134 48.157 3.879 5.252-8.013 27.422 5.82 48.158-3.879m30.704 0c20.736 9.7 42.907-4.134 48.158 3.879 5.25-8.013 27.421 5.82 48.157-3.879" fill="none" stroke="#000"/><text xml:space="preserve" style="line-height:1.25;text-align:center" x="152.338" y="62.935" font-weight="400" font-size="14.667" font-family="sans-serif" letter-spacing="0" word-spacing="0" text-anchor="middle"><tspan x="152.338" y="62.935" style="text-align:center">Vitesse émission</tspan><tspan x="152.338" y="81.268" style="text-align:center">Minitel</tspan></text><text xml:space="preserve" style="line-height:1.25;text-align:center" x="279.358" y="62.935" font-weight="400" font-size="14.667" font-family="sans-serif" letter-spacing="0" word-spacing="0" text-anchor="middle"><tspan x="279.358" y="62.935" style="text-align:center">Vitesse réception</tspan><tspan x="279.358" y="81.268" style="text-align:center">Minitel</tspan></text></g></svg>