<svg xmlns="http://www.w3.org/2000/svg" width="763.297" height="259.285"><defs><marker id="a" orient="auto" overflow="visible" refX="0" refY="0"><path fill-rule="evenodd" stroke="#000" stroke-width=".4pt" d="m2.308 0-3.46 2v-4Z"/></marker><marker id="b" orient="auto" overflow="visible" refX="0" refY="0"><path fill-rule="evenodd" stroke="#000" stroke-linejoin="round" stroke-width=".375" d="M-5.231-2.42 1.324-.01-5.23 2.401c1.047-1.423 1.041-3.37 0-4.821z"/></marker></defs><path fill="#fbd534" d="M311.47 20.548h206.565v241.533H311.47z" style="-inkscape-stroke:none" transform="translate(-6.58 -3.296)"/><path fill="none" stroke="#000" d="M304.89 17.252h206.565M304.89 41.405h206.565M304.89 65.559h206.565M304.89 89.712h206.565M304.89 113.865h206.565M304.89 138.019h206.565M304.89 162.172h206.565M304.89 186.325h206.565M304.89 210.479h206.565M304.89 234.632h206.565M304.89 258.785h206.565M304.89 17.252v241.533m25.821-241.533v241.533m25.821-241.533v241.533m25.82-241.533v241.533m25.821-241.533v241.533m25.821-241.533v241.533m25.82-241.533v241.533m25.821-241.533v241.533m25.82-241.533v241.533"/><path fill="#fbd534" d="M311.47 20.548h206.565v241.533H311.47z" style="-inkscape-stroke:none" transform="translate(244.762 -3.296)"/><path fill="none" stroke="#000" d="M556.232 17.252h206.565M556.232 41.405h206.565M556.232 65.559h206.565M556.232 89.712h206.565m-206.565 24.153h206.565m-206.565 24.154h206.565m-206.565 24.153h206.565m-206.565 24.153h206.565m-206.565 24.154h206.565m-206.565 24.153h206.565m-206.565 24.153h206.565M556.232 17.252v241.533m25.82-241.533v241.533m25.821-241.533v241.533m25.821-241.533v241.533m25.82-241.533v241.533m25.821-241.533v241.533m25.82-241.533v241.533m25.821-241.533v241.533m25.821-241.533v241.533"/><path fill="none" d="M587.823 44.354h27.02v169.77h-27.02z" style="-inkscape-stroke:none" transform="translate(-6.58 -3.296)"/><path fill="#f02f31" d="M582.052 41.057V210.83l25.822-.35v-72.46h25.82v24.154h25.82v-24.155h25.82v-24.152h-77.07l-.39-48.307h77.46V41.405ZM685.335 65.56v48.307h25.82V65.559Zm-25.82 96.614v24.152h25.82v-24.152zm25.82 24.152v24.154h25.82v-24.154z"/><path fill="#0899d6" stroke="#000" d="M251.291 28.025c-72.27-4.251-156.373-6.641-229.32-.732-4.251 72.27-5.4 144.746.51 217.693 72.27 4.251 156.373 6.641 229.32.732 4.251-72.27 5.4-144.746-.51-217.693z"/><path fill="#f8db3c" stroke="#000" d="M43.26 43.26h24.514v26.316H43.26z" style="-inkscape-stroke:none" transform="translate(-6.58 -3.296)"/><path fill="none" stroke="#000" stroke-dasharray="4 4" marker-end="url(#a)" d="M63.218 69.59c50.378 33.1 95.103 66.23 216.928 80.807" transform="translate(-6.58 -3.296)"/><path fill="none" stroke="#000" marker-end="url(#b)" d="M12.13 136.6V29.54" transform="translate(-6.58 -3.296)"/><path fill="none" stroke="#000" marker-end="url(#b)" d="M12.11 150.766v95.464" transform="translate(-6.58 -3.296)"/><text xml:space="preserve" x="6.067" y="148.23" font-family="sans-serif" font-size="40" font-weight="400" letter-spacing="0" style="line-height:1.25" transform="translate(-6.58 -3.296)" word-spacing="0"><tspan x="6.067" y="148.23" font-size="10.667" style="-inkscape-font-specification:'sans-serif, Normal';font-variant-ligatures:normal;font-variant-caps:normal;font-variant-numeric:normal;font-variant-east-asian:normal">25</tspan></text><path fill="none" stroke="#000" marker-end="url(#b)" d="M294.57 136.6V23.23" transform="translate(-6.58 -3.296)"/><path fill="none" stroke="#000" marker-end="url(#b)" d="M294.551 169.872v89.155" transform="translate(-6.58 -3.296)"/><text xml:space="preserve" x="291.89" y="148.41" font-family="sans-serif" font-size="40" font-weight="400" letter-spacing="0" style="line-height:.25;text-align:center" text-anchor="middle" transform="translate(-6.58 -3.296)" word-spacing="0"><tspan x="291.89" y="148.41" font-size="10.667" style="-inkscape-font-specification:'sans-serif, Normal';font-variant-ligatures:normal;font-variant-caps:normal;font-variant-numeric:normal;font-variant-east-asian:normal;text-align:center">10</tspan><tspan x="291.89" y="163.1" font-size="10.667" style="-inkscape-font-specification:'sans-serif, Normal';font-variant-ligatures:normal;font-variant-caps:normal;font-variant-numeric:normal;font-variant-east-asian:normal;text-align:center">lignes</tspan></text><path fill="none" stroke="#000" marker-end="url(#b)" d="M153.985 7.354h106.702" transform="translate(-6.58 -3.296)"/><path fill="none" stroke="#000" marker-end="url(#b)" d="M136.756 7.335H30.837" transform="translate(-6.58 -3.296)"/><text xml:space="preserve" x="139.513" y="11.152" font-family="sans-serif" font-size="40" font-weight="400" letter-spacing="0" style="line-height:1.25" transform="translate(-6.58 -3.296)" word-spacing="0"><tspan x="139.513" y="11.152" font-size="10.667" style="-inkscape-font-specification:'sans-serif, Normal';font-variant-ligatures:normal;font-variant-caps:normal;font-variant-numeric:normal;font-variant-east-asian:normal">40</tspan></text><path fill="none" stroke="#000" marker-end="url(#b)" d="M435.806 7.354h80.956" transform="translate(-6.58 -3.296)"/><path fill="none" stroke="#000" marker-end="url(#b)" d="M389.007 7.335H312.66" transform="translate(-6.58 -3.296)"/><text xml:space="preserve" x="392.529" y="11.158" font-family="sans-serif" font-size="40" font-weight="400" letter-spacing="0" style="line-height:1.25" transform="translate(-6.58 -3.296)" word-spacing="0"><tspan x="392.529" y="11.158" font-size="10.667" style="-inkscape-font-specification:'sans-serif, Normal';font-variant-ligatures:normal;font-variant-caps:normal;font-variant-numeric:normal;font-variant-east-asian:normal">8 points</tspan></text><path fill="none" stroke="#000" marker-end="url(#b)" d="M519.494 151.393H557.1" transform="translate(-6.58 -3.296)"/></svg>