<svg width="285.001" height="282.609" xmlns="http://www.w3.org/2000/svg"><path fill="#43bfed" stroke="#000" stroke-width="1.002" d="M.501.501h284v281.607h-284z" style="-inkscape-stroke:none"/><path fill="none" stroke="#000" d="M284.44 148.998c-53.713 20.278-173.787 41.366-177.538-18.837"/><path fill="none" stroke="#000" d="M143.87 208.721c-12.84-42.902-15.2-50.94-17.004-78.813m-19.964.253c-2.876 22.654-18.15 37.043-35.191 50.253"/><circle cx="45.809" cy="194.546" r="35.973" fill="#f7ca16" stroke="#000" stroke-width="1.002" style="-inkscape-stroke:none"/><text xml:space="preserve" x="45.692" y="201.395" font-family="sans-serif" font-size="14.667" font-weight="400" letter-spacing="0" style="line-height:1.25;text-align:center" text-anchor="middle" word-spacing="0"><tspan x="45.692" y="201.395" rotate="0 0 0 0 0 0">Écran</tspan></text><circle cx="147.982" cy="238.969" r="35.973" fill="#f7ca16" stroke="#000" stroke-width="1.002" style="-inkscape-stroke:none"/><text xml:space="preserve" x="147.645" y="244.469" font-family="sans-serif" font-size="14.667" font-weight="400" letter-spacing="0" style="line-height:1.25;text-align:center" text-anchor="middle" word-spacing="0"><tspan x="147.645" y="244.469" rotate="0 0 0 0 0 0 0 0">Clavier</tspan></text><circle cx="218.425" cy="150.123" r="35.973" fill="#f7ca16" stroke="#000" stroke-width="1.002" style="-inkscape-stroke:none"/><text xml:space="preserve" x="218.087" y="155.454" font-family="sans-serif" font-size="14.667" font-weight="400" letter-spacing="0" style="line-height:1.25;text-align:center" text-anchor="middle" word-spacing="0"><tspan x="218.087" y="155.454" rotate="0 0 0 0 0 0">Prise</tspan></text><path fill="none" stroke="#000" d="M121.685 62.115V.641m-15.134 0v62.154"/><circle cx="114.982" cy="96.181" r="35.973" fill="#f7ca16" stroke="#000" stroke-width="1.002" style="-inkscape-stroke:none"/><text xml:space="preserve" x="114.865" y="101.681" font-family="sans-serif" font-size="14.667" font-weight="400" letter-spacing="0" style="line-height:1.25;text-align:center" text-anchor="middle" word-spacing="0"><tspan x="114.865" y="101.681" rotate="0 0 0 0 0 0">Modem</tspan></text><path d="m95.658 150.668 6.343 4.44-7.112 3.163zm48.34 19.365 1.928-7.5 5.5 5.39zm-9.408 6.81 5.484 5.456-7.55 1.905zm132.062-25.95 7.699 1.064-4.88 6.032zM121.707 27.298l3.969 6.62-7.79.017zm-15.082 6.637-3.969-6.62 7.79-.017z"/></svg>