<svg xmlns="http://www.w3.org/2000/svg" width="140.846" height="140.846"><g transform="translate(-1.924 -1.059)"><path fill="#f92d6b" stroke="#000" d="M72.346 1.559A69.923 69.923 0 0 0 2.424 71.48a69.923 69.923 0 0 0 57.115 68.59v-25.146h25.615v25.146a69.923 69.923 0 0 0 57.116-68.59A69.923 69.923 0 0 0 72.346 1.56Z"/><path fill="#abcb3e" stroke="#000" d="M85.154 140.07v-25.146H59.54v25.146a69.923 69.923 0 0 0 12.807 1.334 69.923 69.923 0 0 0 12.808-1.334z"/><circle cx="23.712" cy="70.865" r="10.038" fill="#abcb3e" stroke="#000"/><text xml:space="preserve" x="21.196" y="74.911" font-family="sans-serif" font-size="11.333" font-weight="400" letter-spacing="0" style="line-height:1.25" word-spacing="0"><tspan x="21.196" y="74.911" rotate="0 0">1</tspan></text><circle cx="72.347" cy="22.058" r="10.038" fill="#abcb3e" stroke="#000"/><text xml:space="preserve" x="69.128" y="26.104" font-family="sans-serif" font-size="11.333" font-weight="400" letter-spacing="0" style="line-height:1.25" word-spacing="0"><tspan x="69.128" y="26.104" rotate="0 0">2</tspan></text><circle cx="37.558" cy="36.942" r="10.038" fill="#abcb3e" stroke="#000"/><text xml:space="preserve" x="34.311" y="41.011" font-family="sans-serif" font-size="11.333" font-weight="400" letter-spacing="0" style="line-height:1.25" word-spacing="0"><tspan x="34.311" y="41.011" rotate="0 0">4</tspan></text><circle cx="106.615" cy="36.942" r="10.038" fill="#abcb3e" stroke="#000"/><text xml:space="preserve" x="103.34" y="40.988" font-family="sans-serif" font-size="11.333" font-weight="400" letter-spacing="0" style="line-height:1.25" word-spacing="0"><tspan x="103.34" y="40.988" rotate="0 0">5</tspan></text><circle cx="120.982" cy="70.865" r="10.038" fill="#abcb3e" stroke="#000"/><text xml:space="preserve" x="117.808" y="74.911" font-family="sans-serif" font-size="11.333" font-weight="400" letter-spacing="0" style="line-height:1.25" word-spacing="0"><tspan x="117.808" y="74.911" rotate="0 0">3</tspan></text></g></svg>