<svg xmlns="http://www.w3.org/2000/svg" width="538.011" height="148.766"><g transform="translate(-3.308 -5.034)"><path fill="#b5f0fe" stroke="#000" stroke-width="1.002" d="M3.809 35.547h67.285v82.519H3.809z"/><path fill="#b5f0fe" stroke="#000" stroke-width="1.002" d="M71.093 35.547h67.285v82.519H71.093z"/><rect width="267.87" height="82.519" x="138.378" y="35.547" fill="#b5f0fe" stroke="#000" stroke-width="1.002" ry="0"/><path fill="#b5f0fe" stroke="#000" stroke-width="1.002" d="M406.248 35.547h67.285v82.519h-67.285zm67.285 0h67.285v82.519h-67.285z"/><path fill="none" stroke="#000" stroke-dasharray="4 4" d="M158.984 35.547v82.519m20.605-82.519v82.519m20.605-82.519v82.519M220.8 35.547v82.519m20.605-82.519v82.519m20.605-82.519v82.519m20.606-82.519v82.519m20.605-82.519v82.519m20.606-82.519v82.519m20.605-82.519v82.519m20.605-82.519v82.519m20.606-82.519v82.519"/><text xml:space="preserve" x="37.23" y="75.248" font-family="sans-serif" font-size="11.333" font-weight="400" letter-spacing="0" style="line-height:1" word-spacing="0"><tspan x="37.23" y="75.248" style="text-align:center" text-anchor="middle">Octet</tspan><tspan x="37.23" y="86.581" style="text-align:center" text-anchor="middle">1</tspan></text><text xml:space="preserve" x="104.515" y="75.248" font-family="sans-serif" font-size="11.333" font-weight="400" letter-spacing="0" style="line-height:1" word-spacing="0"><tspan x="104.515" y="75.248" style="text-align:center" text-anchor="middle">Octet</tspan><tspan x="104.515" y="86.581" style="text-align:center" text-anchor="middle">2</tspan></text><text xml:space="preserve" x="439.669" y="69.525" font-family="sans-serif" font-size="11.333" font-weight="400" letter-spacing="0" style="line-height:1" word-spacing="0"><tspan x="439.669" y="69.525" style="text-align:center" text-anchor="middle">Octet</tspan><tspan x="439.669" y="80.858" style="text-align:center" text-anchor="middle">16</tspan><tspan x="439.669" y="92.191" style="text-align:center" text-anchor="middle">CRC</tspan></text><text xml:space="preserve" x="507.402" y="63.858" font-family="sans-serif" font-size="11.333" font-weight="400" letter-spacing="0" style="line-height:1" word-spacing="0"><tspan x="507.402" y="63.858" style="text-align:center" text-anchor="middle">Octet</tspan><tspan x="507.402" y="75.191" style="text-align:center" text-anchor="middle">17</tspan><tspan x="507.402" y="86.525" style="text-align:center" text-anchor="middle">valida-</tspan><tspan x="507.402" y="97.858" style="text-align:center" text-anchor="middle">tion</tspan></text><path fill="none" stroke="#000" stroke-dasharray="8 8" d="M3.809 11.108h219.31m98.071 0h85.058M37.451 138.09v-20.024m469.724 20.024v-20.024"/><text xml:space="preserve" x="226.928" y="13.647" font-family="sans-serif" font-size="11.333" font-weight="400" letter-spacing="0" style="line-height:1.25" word-spacing="0"><tspan x="226.928" y="13.647">Bloc de 15 octets</tspan></text><text xml:space="preserve" x="4.749" y="153.687" font-family="sans-serif" font-size="11.333" font-weight="400" letter-spacing="0" style="line-height:1.25;-inkscape-font-specification:'sans-serif, Normal';font-variant-ligatures:normal;font-variant-position:super;font-variant-caps:normal;font-variant-numeric:normal;font-variant-east-asian:normal" word-spacing="0"><tspan x="4.749" y="153.687"><tspan style="-inkscape-font-specification:'sans-serif, Normal';font-variant-ligatures:normal;font-variant-position:normal;font-variant-caps:normal;font-variant-numeric:normal;font-variant-east-asian:normal">1</tspan><tspan style="-inkscape-font-specification:'sans-serif, Normal';font-variant-ligatures:normal;font-variant-position:super;font-variant-caps:normal;font-variant-numeric:normal;font-variant-east-asian:normal">er</tspan><tspan style="-inkscape-font-specification:'sans-serif, Normal';font-variant-ligatures:normal;font-variant-position:normal;font-variant-caps:normal;font-variant-numeric:normal;font-variant-east-asian:normal"> Octet transmis</tspan></tspan></text><text xml:space="preserve" x="406.909" y="153.687" font-family="sans-serif" font-size="11.333" font-weight="400" letter-spacing="0" style="line-height:1.25" word-spacing="0"><tspan x="406.909" y="153.687">Dernier Octet transmis</tspan></text><path fill="none" stroke="#000" d="M4.754 138.217h99.194m303.88 0H527.97"/></g></svg>