<svg xmlns="http://www.w3.org/2000/svg" width="552" height="148"><path fill="#b5f0fe" d="M293.165 29.174h62.949v82.519h-62.95z"/><path fill="none" stroke="#000" stroke-dasharray="6 6" d="M293.165 29.174v82.519m62.949-82.519v82.519m-42.283-82.519v82.519"/><path fill="#b5f0fe" d="M397.64 29.174h145.872v82.519H397.64z"/><path fill="none" stroke="#000" stroke-dasharray="6 6" d="m397.64 29.174.756 82.519"/><path fill="none" stroke="#000" d="M293.165 29.174h62.949m-62.949 82.519h250.347"/><text xml:space="preserve" x="15.076" y="187.457" font-family="sans-serif" font-size="11.333" font-weight="400" letter-spacing="0" style="line-height:1" transform="translate(-.707 -55.861)" word-spacing="0"><tspan x="15.076" y="187.457" style="text-align:center" text-anchor="middle">126</tspan></text><text xml:space="preserve" x="207.017" y="193.576" font-family="sans-serif" font-size="11.333" font-weight="400" letter-spacing="0" style="line-height:1" transform="translate(-.707 -55.861)" word-spacing="0"><tspan x="207.017" y="193.576" style="text-align:center" text-anchor="middle">M(x)</tspan></text><text xml:space="preserve" x="353.872" y="187.457" font-family="sans-serif" font-size="11.333" font-weight="400" letter-spacing="0" style="line-height:1" transform="translate(-.707 -55.861)" word-spacing="0"><tspan x="353.872" y="187.457" style="text-align:center" text-anchor="middle">7</tspan></text><text xml:space="preserve" x="402.501" y="186.813" font-family="sans-serif" font-size="11.333" font-weight="400" letter-spacing="0" style="line-height:1" transform="translate(-.707 -55.861)" word-spacing="0"><tspan x="402.501" y="186.813" style="text-align:center" text-anchor="middle">6</tspan></text><text xml:space="preserve" x="541.626" y="186.957" font-family="sans-serif" font-size="11.333" font-weight="400" letter-spacing="0" style="line-height:1" transform="translate(-.707 -55.861)" word-spacing="0"><tspan x="541.626" y="186.957" style="text-align:center" text-anchor="middle">0</tspan></text><text xml:space="preserve" x="303.944" y="130.341" font-family="sans-serif" font-size="11.333" font-weight="400" letter-spacing="0" style="line-height:1" transform="translate(-.707 -55.861)" word-spacing="0"><tspan x="303.944" y="130.341" style="text-align:center" text-anchor="middle">P</tspan></text><path fill="none" stroke="#000" stroke-dasharray="6 6" d="M419.127 29.674v82.519m20.731-82.019v82.519m20.73-83.519v82.519m20.732-81.519v82.519m20.73-81.519v82.519m20.73-82.519v82.519m20.732-84.519v82.519"/><path fill="#b5f0fe" d="M2.665 29.174h125.898v82.519H2.665Z"/><path fill="none" stroke="#000" stroke-dasharray="6 6" d="M2.665 29.174v82.519m62.949-82.519v82.519m62.949-82.519v82.519M23.331 29.174v82.519M86.28 29.174v82.519"/><path fill="none" stroke="#000" d="M2.665 29.174h125.898"/><text xml:space="preserve" x="13.444" y="130.341" font-family="sans-serif" font-size="11.333" font-weight="400" letter-spacing="0" style="line-height:1" transform="translate(-.707 -55.861)" word-spacing="0"><tspan x="13.444" y="130.341" style="text-align:center" text-anchor="middle">P</tspan></text><text xml:space="preserve" x="76.393" y="130.341" font-family="sans-serif" font-size="11.333" font-weight="400" letter-spacing="0" style="line-height:1" transform="translate(-.707 -55.861)" word-spacing="0"><tspan x="76.393" y="130.341" style="text-align:center" text-anchor="middle">P</tspan></text><path fill="none" stroke="#000" d="M2.665 111.693h125.898"/><text xml:space="preserve" x="409.469" y="130.346" font-family="sans-serif" font-size="11.333" font-weight="400" letter-spacing="0" style="line-height:1" transform="translate(-.707 -55.861)" word-spacing="0"><tspan x="409.469" y="130.346" style="text-align:center" text-anchor="middle">0</tspan></text><path fill="none" stroke="#000" d="M397.64 29.174h145.872"/><text xml:space="preserve" x="430.199" y="130.346" font-family="sans-serif" font-size="11.333" font-weight="400" letter-spacing="0" style="line-height:1" transform="translate(-.707 -55.861)" word-spacing="0"><tspan x="430.199" y="130.346" style="text-align:center" text-anchor="middle">0</tspan></text><text xml:space="preserve" x="450.93" y="130.346" font-family="sans-serif" font-size="11.333" font-weight="400" letter-spacing="0" style="line-height:1" transform="translate(-.707 -55.861)" word-spacing="0"><tspan x="450.93" y="130.346" style="text-align:center" text-anchor="middle">0</tspan></text><text xml:space="preserve" x="471.661" y="130.346" font-family="sans-serif" font-size="11.333" font-weight="400" letter-spacing="0" style="line-height:1" transform="translate(-.707 -55.861)" word-spacing="0"><tspan x="471.661" y="130.346" style="text-align:center" text-anchor="middle">0</tspan></text><text xml:space="preserve" x="492.392" y="130.346" font-family="sans-serif" font-size="11.333" font-weight="400" letter-spacing="0" style="line-height:1" transform="translate(-.707 -55.861)" word-spacing="0"><tspan x="492.392" y="130.346" style="text-align:center" text-anchor="middle">0</tspan></text><text xml:space="preserve" x="513.122" y="130.346" font-family="sans-serif" font-size="11.333" font-weight="400" letter-spacing="0" style="line-height:1" transform="translate(-.707 -55.861)" word-spacing="0"><tspan x="513.122" y="130.346" style="text-align:center" text-anchor="middle">0</tspan></text><text xml:space="preserve" x="533.853" y="130.346" font-family="sans-serif" font-size="11.333" font-weight="400" letter-spacing="0" style="line-height:1" transform="translate(-.707 -55.861)" word-spacing="0"><tspan x="533.853" y="130.346" style="text-align:center" text-anchor="middle">0</tspan></text><path fill="none" stroke="#000" d="M2.165 138.174h187.398m32.102 0h321.847"/><path fill="none" stroke="#000" stroke-dasharray="12 12" d="M271.322 62.934H147.803m123.519 16.5H147.803M356.114 7.953h-135.81m-83.329 0H2.665"/><text xml:space="preserve" x="180.017" y="68.076" font-family="sans-serif" font-size="11.333" font-weight="400" letter-spacing="0" style="line-height:1" transform="translate(-.707 -55.861)" word-spacing="0"><tspan x="180.017" y="68.076" style="text-align:center" text-anchor="middle">Octets 1 à 15</tspan></text><path fill="none" stroke="#000" stroke-dasharray="12 12" d="M543.512 7.953h-46.709m-58.828 0h-39.579"/><text xml:space="preserve" x="472.017" y="68.076" font-family="sans-serif" font-size="11.333" font-weight="400" letter-spacing="0" style="line-height:1" transform="translate(-.707 -55.861)" word-spacing="0"><tspan x="472.017" y="68.076" style="text-align:center" text-anchor="middle">Octet 16</tspan></text></svg>