<svg xmlns="http://www.w3.org/2000/svg" width="544.04" height="165.452"><path fill="#b5f0fe" d="M376.392 25.641h62.95v82.519h-62.95zm104.199 0h62.95v82.519h-62.95z"/><path fill="none" stroke="#000" stroke-dasharray="6 6" d="M376.392 25.641v82.519m104.199-82.519v82.519m-41.25-82.519v82.519M543.54 25.641v82.519M397.059 25.641v82.519m104.199-82.519v82.519"/><path fill="none" stroke="#000" d="M376.392 25.641h62.95m41.249 0h62.95M376.392 108.16h62.95m41.249 0h62.95"/><text xml:space="preserve" x="15.756" y="128.695" font-family="sans-serif" font-size="11.333" font-weight="400" letter-spacing="0" style="line-height:1" transform="translate(-3.552 -.633)" word-spacing="0"><tspan x="15.756" y="128.695" style="text-align:center" text-anchor="middle">126</tspan></text><text xml:space="preserve" x="275.299" y="164.295" font-family="sans-serif" font-size="11.333" font-weight="400" letter-spacing="0" style="line-height:1" transform="translate(-3.552 -.633)" word-spacing="0"><tspan x="275.299" y="164.295" style="text-align:center" text-anchor="middle">T(x)</tspan></text><text xml:space="preserve" x="390.017" y="71.579" font-family="sans-serif" font-size="11.333" font-weight="400" letter-spacing="0" style="line-height:1" transform="translate(-3.552 -.633)" word-spacing="0"><tspan x="390.017" y="71.579" style="text-align:center" text-anchor="middle">P</tspan></text><text xml:space="preserve" x="494.215" y="71.579" font-family="sans-serif" font-size="11.333" font-weight="400" letter-spacing="0" style="line-height:1" transform="translate(-3.552 -.633)" word-spacing="0"><tspan x="494.215" y="71.579" style="text-align:center" text-anchor="middle">P</tspan></text><path fill="#b5f0fe" d="M.5 25.641h125.898v82.519H.5Z"/><path fill="none" stroke="#000" stroke-dasharray="6 6" d="M.5 25.641v82.519m62.949-82.519v82.519m62.949-82.519v82.519M21.166 25.641v82.519m62.949-82.519v82.519"/><path fill="none" stroke="#000" d="M.5 25.641h125.898"/><text xml:space="preserve" x="14.124" y="71.579" font-family="sans-serif" font-size="11.333" font-weight="400" letter-spacing="0" style="line-height:1" transform="translate(-3.552 -.633)" word-spacing="0"><tspan x="14.124" y="71.579" style="text-align:center" text-anchor="middle">P</tspan></text><text xml:space="preserve" x="77.073" y="71.579" font-family="sans-serif" font-size="11.333" font-weight="400" letter-spacing="0" style="line-height:1" transform="translate(-3.552 -.633)" word-spacing="0"><tspan x="77.073" y="71.579" style="text-align:center" text-anchor="middle">P</tspan></text><path fill="none" stroke="#000" d="M.5 108.16h125.898M0 164.122h260.083m26.511 0h254.753"/><path fill="none" stroke="#000" stroke-dasharray="12 12" d="M368.02 59.4H133.947M368.02 75.9H133.947M439.341 4.42h-180.54m-79.261 0H.5"/><text xml:space="preserve" x="224.918" y="9.314" font-family="sans-serif" font-size="11.333" font-weight="400" letter-spacing="0" style="line-height:1" transform="translate(-3.552 -.633)" word-spacing="0"><tspan x="224.918" y="9.314" style="text-align:center" text-anchor="middle">Octets 1 à 15</tspan></text><path fill="none" stroke="#000" stroke-dasharray="12 12" d="M543.54 4.42h-6.451m-49.909 0h-6.589"/><text xml:space="preserve" x="493.802" y="9.314" font-family="sans-serif" font-size="11.333" font-weight="400" letter-spacing="0" style="line-height:1;text-align:start" transform="translate(-3.552 -.633)" word-spacing="0"><tspan x="493.802" y="9.314" style="text-align:start">Octet 16</tspan></text><text xml:space="preserve" x="497.675" y="139.643" font-family="sans-serif" font-size="11.333" font-weight="400" letter-spacing="0" style="line-height:1" transform="translate(-3.552 -.633)" word-spacing="0"><tspan x="497.675" y="139.643" style="text-align:center" text-anchor="middle">R (x) =</tspan></text><text xml:space="preserve" x="530.968" y="129.223" font-family="sans-serif" font-size="11.333" font-weight="400" letter-spacing="0" style="line-height:1" transform="translate(-3.552 -.633)" word-spacing="0"><tspan x="530.968" y="129.223" style="text-align:center" text-anchor="middle">M (x)</tspan></text><text xml:space="preserve" x="531.172" y="152.096" font-family="sans-serif" font-size="11.333" font-weight="400" letter-spacing="0" style="line-height:1" transform="translate(-3.552 -.633)" word-spacing="0"><tspan x="531.172" y="152.096" style="text-align:center" text-anchor="middle">G (x)</tspan></text><path fill="none" stroke="#000" d="M513.546 135.86h28.386"/></svg>