<svg xmlns="http://www.w3.org/2000/svg" width="630.453" height="239.296" viewBox="0 0 166.807 63.314"><path fill="#fcd638" stroke="#000" stroke-width=".265" d="M.132 10.858h48.266v13.755H.132z"/><path fill="#a0c541" stroke="#000" stroke-width=".265" d="M.132 24.613h48.266V49.59H.132z"/><path fill="#fcd638" stroke="#000" stroke-width=".265" d="M.132 50.983h48.266v8.423H.132z"/><text xml:space="preserve" x="35.349" y="53.935" stroke-width=".265" font-family="sans-serif" font-size="10.583" font-weight="400" letter-spacing="0" style="line-height:1.25;text-align:center" text-anchor="middle" transform="translate(-11.167 -34.951)" word-spacing="0"><tspan x="35.349" y="53.935" font-family="Arial" font-size="2.822" style="-inkscape-font-specification:'Arial, Normal';font-variant-ligatures:normal;font-variant-caps:normal;font-variant-numeric:normal;font-variant-east-asian:normal;text-align:center">UNITÉ DE TRAITEMENT</tspan></text><text xml:space="preserve" x="35.349" y="91.259" stroke-width=".265" font-family="sans-serif" font-size="10.583" font-weight="400" letter-spacing="0" style="line-height:1.25;text-align:center" text-anchor="middle" transform="translate(-11.167 -34.951)" word-spacing="0"><tspan x="35.349" y="91.259" font-family="Arial" font-size="2.822" style="-inkscape-font-specification:'Arial, Normal';font-variant-ligatures:normal;font-variant-caps:normal;font-variant-numeric:normal;font-variant-east-asian:normal;text-align:center">MODEM</tspan></text><path fill="none" stroke="#000" stroke-dasharray="2.117 .265" stroke-width=".265" d="M13.226 27.56h22.076v19.084H13.226z"/><path fill="none" stroke="#000" stroke-dasharray="1.058 .265" stroke-linejoin="bevel" stroke-width=".265" d="M8.487 24.6c5.126 2.93 8.41 7.442 8.41 12.502 0 5.055-3.277 9.562-8.394 12.493zm31.557 0c-5.127 2.93-8.41 7.442-8.41 12.502 0 5.055 3.276 9.562 8.393 12.493z"/><path fill="#a0c541" d="M15.192 36.925h18.004v2.47H15.192zM.6 28.285h10.988v2.972H.6z"/><text xml:space="preserve" x="17.532" y="65.865" stroke-width=".265" font-family="sans-serif" font-size="10.583" font-weight="400" letter-spacing="0" style="line-height:0;text-align:center" text-anchor="middle" transform="translate(-11.167 -34.951)" word-spacing="0"><tspan x="17.532" y="65.865" font-family="Arial" font-size="2.822" style="-inkscape-font-specification:'Arial, Normal';font-variant-ligatures:normal;font-variant-caps:normal;font-variant-numeric:normal;font-variant-east-asian:normal;text-align:center">Émission</tspan></text><path fill="#a0c541" d="M35.866 28.797h10.988v3.02H35.866z"/><text xml:space="preserve" x="52.985" y="65.819" stroke-width=".265" font-family="sans-serif" font-size="10.583" font-weight="400" letter-spacing="0" style="line-height:0;text-align:center" text-anchor="middle" transform="translate(-11.167 -34.951)" word-spacing="0"><tspan x="52.985" y="65.819" font-family="Arial" font-size="2.822" style="-inkscape-font-specification:'Arial, Normal';font-variant-ligatures:normal;font-variant-caps:normal;font-variant-numeric:normal;font-variant-east-asian:normal;text-align:center">Réception</tspan></text><path d="M40.636 50.81h-1.218l.304-.528.305-.528.304.528zM7.94 49.784h1.218l-.304.527-.305.527-.304-.527z"/><text xml:space="preserve" x="35.399" y="96.232" stroke-width=".265" font-family="sans-serif" font-size="10.583" font-weight="400" letter-spacing="0" style="line-height:0;text-align:center" text-anchor="middle" transform="translate(-11.167 -34.951)" word-spacing="0"><tspan x="35.399" y="98.232" font-family="Arial" font-size="2.822" style="-inkscape-font-specification:'Arial, Normal';font-variant-ligatures:normal;font-variant-caps:normal;font-variant-numeric:normal;font-variant-east-asian:normal;text-align:center">Point d&apos;accès vidéotex</tspan></text><text xml:space="preserve" x="35.406" y="39.392" stroke-width=".265" font-family="sans-serif" font-size="10.583" font-weight="400" letter-spacing="0" style="line-height:0;text-align:center" text-anchor="middle" transform="translate(-11.167 -34.951)" word-spacing="0"><tspan x="35.406" y="39.392" font-family="Arial" font-size="2.822" style="-inkscape-font-specification:'Arial, Normal';font-variant-ligatures:normal;font-variant-caps:normal;font-variant-numeric:normal;font-variant-east-asian:normal;text-align:center">Vers serveur</tspan></text><path fill="none" stroke="#000" stroke-width=".265" d="M24.265 10.792V5.46"/><path d="M24.874 6.152h-1.218l.305-.527.304-.528.305.528zM40.653 25.77h-1.218l.304-.527.305-.528.304.528zm-8.268 9.094-.574-.204-.574-.203.463-.396.464-.395.11.599zm-16.626 5.523.573.206.573.205-.465.394-.464.393-.109-.599z"/><path fill="#e3252e" stroke="#000" stroke-width=".265" d="M102.371 17.736h48.266v6.878h-48.266z"/><path fill="#fcd638" stroke="#000" stroke-linejoin="bevel" stroke-width=".265" d="M102.371 10.858h48.266v6.878h-48.266z"/><path fill="#a0c541" stroke="#000" stroke-width=".265" d="M102.371 24.613h48.266V49.59h-48.266z"/><path fill="#fcd638" stroke="#000" stroke-width=".265" d="M102.371 50.983h48.266v8.423h-48.266z"/><text xml:space="preserve" x="137.588" y="58.659" stroke-width=".265" font-family="sans-serif" font-size="10.583" font-weight="400" letter-spacing="0" style="line-height:1.25;text-align:center" text-anchor="middle" transform="translate(-11.167 -34.951)" word-spacing="0"><tspan x="137.588" y="58.659" font-family="Arial" font-size="2.822" style="-inkscape-font-specification:'Arial, Normal';font-variant-ligatures:normal;font-variant-caps:normal;font-variant-numeric:normal;font-variant-east-asian:normal;text-align:center">Protocole</tspan></text><text xml:space="preserve" x="137.588" y="91.259" stroke-width=".265" font-family="sans-serif" font-size="10.583" font-weight="400" letter-spacing="0" style="line-height:1.25;text-align:center" text-anchor="middle" transform="translate(-11.167 -34.951)" word-spacing="0"><tspan x="137.588" y="91.259" font-family="Arial" font-size="2.822" style="-inkscape-font-specification:'Arial, Normal';font-variant-ligatures:normal;font-variant-caps:normal;font-variant-numeric:normal;font-variant-east-asian:normal;text-align:center">MODEM</tspan></text><path fill="none" stroke="#000" stroke-dasharray="2.117 .265" stroke-width=".265" d="M115.465 27.56h22.076v19.084h-22.076z"/><path fill="none" stroke="#000" stroke-dasharray="1.058 .265" stroke-linejoin="bevel" stroke-width=".265" d="M110.725 24.6c5.127 2.93 8.41 7.442 8.41 12.502 0 5.055-3.276 9.562-8.393 12.493zm31.557 0c-5.126 2.93-8.41 7.442-8.41 12.502 0 5.055 3.277 9.562 8.393 12.493z"/><text xml:space="preserve" x="137.637" y="73.052" stroke-width=".265" font-family="sans-serif" font-size="10.583" font-weight="400" letter-spacing="0" style="line-height:0;text-align:center" text-anchor="middle" transform="translate(-11.167 -34.951)" word-spacing="0"><tspan x="137.637" y="73.052" font-family="Arial" font-size="2.822" style="-inkscape-font-specification:'Arial, Normal';font-variant-ligatures:normal;font-variant-caps:normal;font-variant-numeric:normal;font-variant-east-asian:normal;text-align:center">Procédure</tspan></text><path fill="#a0c541" d="M102.838 36.013h10.988v2.972h-10.988z"/><text xml:space="preserve" x="119.77" y="73.302" stroke-width=".265" font-family="sans-serif" font-size="10.583" font-weight="400" letter-spacing="0" style="line-height:0;text-align:center" text-anchor="middle" transform="translate(-11.167 -34.951)" word-spacing="0"><tspan x="119.77" y="73.302" font-family="Arial" font-size="2.822" style="-inkscape-font-specification:'Arial, Normal';font-variant-ligatures:normal;font-variant-caps:normal;font-variant-numeric:normal;font-variant-east-asian:normal;text-align:center">Émission</tspan></text><path fill="#a0c541" d="M138.105 35.592h10.988v3.02h-10.988z"/><text xml:space="preserve" x="155.224" y="72.789" stroke-width=".265" font-family="sans-serif" font-size="10.583" font-weight="400" letter-spacing="0" style="line-height:0;text-align:center" text-anchor="middle" transform="translate(-11.167 -34.951)" word-spacing="0"><tspan x="155.224" y="72.789" font-family="Arial" font-size="2.822" style="-inkscape-font-specification:'Arial, Normal';font-variant-ligatures:normal;font-variant-caps:normal;font-variant-numeric:normal;font-variant-east-asian:normal;text-align:center">Réception</tspan></text><path d="M142.874 50.81h-1.218l.305-.528.304-.528.305.528zm-32.695-1.026h1.218l-.305.527-.304.527-.305-.527zm32.712-24.014h-1.218l.305-.527.304-.528.305.528zm-8.267 9.094-.574-.204-.574-.203.463-.396.463-.395.111.599zm-16.626 5.523.573.206.573.205-.465.394-.465.393-.108-.599z"/><text xml:space="preserve" x="118.23" y="49.491" stroke-width=".265" font-family="sans-serif" font-size="10.583" font-weight="400" letter-spacing="0" style="line-height:0;text-align:start" transform="translate(-11.167 -34.951)" word-spacing="0"><tspan x="118.23" y="49.491" font-family="Arial" font-size="2.822" style="-inkscape-font-specification:'Arial, Normal';font-variant-ligatures:normal;font-variant-caps:normal;font-variant-numeric:normal;font-variant-east-asian:normal;text-align:start">Module</tspan><tspan x="118.23" y="51.728" font-family="Arial" font-size="2.822" style="-inkscape-font-specification:'Arial, Normal';font-variant-ligatures:normal;font-variant-caps:normal;font-variant-numeric:normal;font-variant-east-asian:normal;text-align:start">écran</tspan></text><text xml:space="preserve" x="134.507" y="49.491" stroke-width=".265" font-family="sans-serif" font-size="10.583" font-weight="400" letter-spacing="0" style="line-height:0;text-align:start" transform="translate(-11.167 -34.951)" word-spacing="0"><tspan x="134.507" y="49.491" font-family="Arial" font-size="2.822" style="-inkscape-font-specification:'Arial, Normal';font-variant-ligatures:normal;font-variant-caps:normal;font-variant-numeric:normal;font-variant-east-asian:normal;text-align:start">Module</tspan><tspan x="134.507" y="51.728" font-family="Arial" font-size="2.822" style="-inkscape-font-specification:'Arial, Normal';font-variant-ligatures:normal;font-variant-caps:normal;font-variant-numeric:normal;font-variant-east-asian:normal;text-align:start">clavier</tspan></text><text xml:space="preserve" x="150.409" y="49.491" stroke-width=".265" font-family="sans-serif" font-size="10.583" font-weight="400" letter-spacing="0" style="line-height:0;text-align:start" transform="translate(-11.167 -34.951)" word-spacing="0"><tspan x="150.409" y="49.491" font-family="Arial" font-size="2.822" style="-inkscape-font-specification:'Arial, Normal';font-variant-ligatures:normal;font-variant-caps:normal;font-variant-numeric:normal;font-variant-east-asian:normal;text-align:start">Module</tspan><tspan x="150.409" y="51.728" font-family="Arial" font-size="2.822" style="-inkscape-font-specification:'Arial, Normal';font-variant-ligatures:normal;font-variant-caps:normal;font-variant-numeric:normal;font-variant-east-asian:normal;text-align:start">prise</tspan></text><path fill="none" stroke="#000" stroke-width=".265" d="M142.453 9.912V8.069"/><path d="M143.062 8.164h-1.218l.305-.528.304-.527.305.527zm-1.218 1.516h1.218l-.304.527-.305.528-.304-.528z"/><path fill="none" stroke="#000" stroke-width=".265" d="M118.46 10.855v6.884m16.089-6.834v6.834m-29.336.986v-1.842"/><path d="M105.822 16.977h-1.218l.304-.527.305-.527.305.527zm-1.218 1.517h1.218l-.304.527-.305.528-.305-.528z"/><path fill="none" stroke="#000" stroke-width=".265" d="M121.302 18.725v-1.842"/><path d="M121.91 16.977h-1.218l.305-.527.305-.527.304.527zm-1.217 1.517h1.218l-.305.527-.304.528-.305-.528z"/><path fill="none" stroke="#000" stroke-width=".265" d="M137.39 18.725v-1.842"/><path d="M138 16.977h-1.218l.304-.527.305-.527.304.527zm-1.218 1.517H138l-.305.527-.304.528-.305-.528z"/><path fill="#fcd638" stroke="#000" stroke-width=".265" d="M134.548.133h32.126V7.01h-32.126z"/><text xml:space="preserve" x="161.745" y="39.709" stroke-width=".265" font-family="sans-serif" font-size="10.583" font-weight="400" letter-spacing="0" style="line-height:1.25;text-align:center" text-anchor="middle" transform="translate(-11.167 -34.951)" word-spacing="0"><tspan x="161.745" y="39.709" font-family="Arial" font-size="2.822" style="-inkscape-font-specification:'Arial, Normal';font-variant-ligatures:normal;font-variant-caps:normal;font-variant-numeric:normal;font-variant-east-asian:normal;text-align:center">PÉRIPHÉRIQUE</tspan></text><text xml:space="preserve" x="86.539" y="69.391" stroke-width=".265" font-family="sans-serif" font-size="10.583" font-weight="400" letter-spacing="0" style="line-height:0;text-align:center" text-anchor="middle" transform="translate(-11.167 -34.951)" word-spacing="0"><tspan x="86.539" y="69.391" font-family="Arial" font-size="2.822" style="-inkscape-font-specification:'Arial, Normal';font-variant-ligatures:normal;font-variant-caps:normal;font-variant-numeric:normal;font-variant-east-asian:normal;text-align:center">Chemin des données hors procédure</tspan></text><text xml:space="preserve" x="86.539" y="76.799" stroke-width=".265" font-family="sans-serif" font-size="10.583" font-weight="400" letter-spacing="0" style="line-height:0;text-align:center" text-anchor="middle" transform="translate(-11.167 -34.951)" word-spacing="0"><tspan x="86.539" y="76.799" font-family="Arial" font-size="2.822" style="-inkscape-font-specification:'Arial, Normal';font-variant-ligatures:normal;font-variant-caps:normal;font-variant-numeric:normal;font-variant-east-asian:normal;text-align:center">Chemin des données avec procédure</tspan></text><text xml:space="preserve" x="86.499" y="91.351" stroke-width=".265" font-family="sans-serif" font-size="10.583" font-weight="400" letter-spacing="0" style="line-height:0;text-align:center" text-anchor="middle" transform="translate(-11.167 -34.951)" word-spacing="0"><tspan x="86.499" y="91.351" font-family="Arial" font-size="2.822" style="-inkscape-font-specification:'Arial, Normal';font-variant-ligatures:normal;font-variant-caps:normal;font-variant-numeric:normal;font-variant-east-asian:normal;text-align:center">Réseau téléphonique commuté</tspan></text><path fill="none" stroke="#000" stroke-width=".265" d="M51.407 33.692H40.03m70.644 0H99.297M55.376 55.653h-6.945m53.975 0H95.46M64.107 42.424l-28.804 4.22m51.359-4.22 28.804 4.22"/><text xml:space="preserve" x="24.213" y="36.691" stroke-width=".265" font-family="sans-serif" font-size="2.822" font-weight="400" letter-spacing="0" style="line-height:1;text-align:center" text-anchor="middle" word-spacing="0"><tspan x="24.213" y="36.691"><tspan x="24.213" y="36.691" font-family="Arial" style="-inkscape-font-specification:'Arial, Normal';font-variant-ligatures:normal;font-variant-caps:normal;font-variant-numeric:normal;font-variant-east-asian:normal;text-align:center">MODULE</tspan></tspan><tspan x="24.213" y="39.539">PROCÉDURE</tspan></text></svg>