<svg xmlns="http://www.w3.org/2000/svg" width="652.734" height="447.108"><g opacity=".884" transform="translate(-3.356 -2.278)"><path fill="none" stroke="#000" d="M3.856 22.367h255.295v426.52H3.856z"/><path fill="#98e5fc" stroke="#000" d="M112.607 103.352h82.527v53.99h-82.527z"/><text xml:space="preserve" x="130.14" y="135.847" font-family="sans-serif" font-size="14.667" font-weight="400" letter-spacing="0" style="line-height:1.25" word-spacing="0"><tspan x="130.14" y="135.847">Minitel</tspan></text><path fill="none" stroke="#000" d="M112.348 129.8H49.084v9.817l5.727 3.8-10.635 3.801 10.635 3.801-10.635 3.8 10.635 3.801-10.635 3.8 10.635 3.801-5.727 3.801v6.681"/><g stroke="#000"><path fill="none" d="M79.625 120.665H57.401"/><path d="M59.583 118.007v5.317l-3.773-2.659z"/></g><text xml:space="preserve" x="67.082" y="119.097" font-family="sans-serif" font-size="14.667" font-weight="400" letter-spacing="0" style="line-height:1.25" word-spacing="0"><tspan x="67.082" y="119.097">I</tspan></text><text xml:space="preserve" x="91.147" y="126.324" font-family="sans-serif" font-size="14.667" font-weight="400" letter-spacing="0" style="line-height:1.25" word-spacing="0"><tspan x="91.147" y="126.324">A</tspan></text><circle cx="95.825" cy="129.8" r="1.363" stroke="#000"/><g stroke="#000"><path fill="none" d="m38.28 161.48 29.323-13.52"/><path d="m66.733 151.287-2.223-4.83 4.538.838z"/></g><path fill="none" stroke="#000" d="M39.335 176.226h19.498m-16.43 2.999h13.362m-8.828 3h4.295"/><path fill="#98e5fc" stroke="#000" d="M112.607 307.543h82.527v53.99h-82.527z"/><text xml:space="preserve" x="130.14" y="340.038" font-family="sans-serif" font-size="14.667" font-weight="400" letter-spacing="0" style="line-height:1.25" word-spacing="0"><tspan x="130.14" y="340.038">Minitel</tspan></text><path fill="none" stroke="#000" d="M112.348 333.991H49.084v9.817l5.727 3.8-10.635 3.801 10.635 3.801-10.635 3.8 10.635 3.801-10.635 3.8 10.635 3.802-5.727 3.8v6.681"/><text xml:space="preserve" x="57.538" y="364.464" font-family="sans-serif" font-size="14.667" font-weight="400" letter-spacing="0" style="line-height:1.25" word-spacing="0"><tspan x="57.538" y="364.464">R</tspan></text><text xml:space="preserve" x="91.147" y="330.515" font-family="sans-serif" font-size="14.667" font-weight="400" letter-spacing="0" style="line-height:1.25" word-spacing="0"><tspan x="91.147" y="330.515">A</tspan></text><circle cx="95.825" cy="333.991" r="1.363" stroke="#000"/><path fill="none" stroke="#000" d="M39.335 380.417h19.498m-16.43 2.999h13.362m-8.828 3h4.295"/><text xml:space="preserve" x="51.811" y="50.379" font-family="sans-serif" font-size="14.667" font-weight="400" letter-spacing="0" style="line-height:1.25" word-spacing="0"><tspan x="51.811" y="50.379">Test 1</tspan></text><text xml:space="preserve" x="51.811" y="261.441" font-family="sans-serif" font-size="14.667" font-weight="400" letter-spacing="0" style="line-height:1.25" word-spacing="0"><tspan x="51.811" y="261.441">Test 2</tspan></text><text xml:space="preserve" x="84.807" y="192.451" font-family="sans-serif" font-size="14.667" font-weight="400" letter-spacing="0" style="line-height:1.25" word-spacing="0"><tspan x="84.807" y="192.451">pour I &lt; 150 µA</tspan></text><text xml:space="preserve" x="93.26" y="208.54" font-family="sans-serif" font-size="14.667" font-weight="400" letter-spacing="0" style="line-height:1.25" word-spacing="0"><tspan x="93.26" y="208.54">2,5 V &lt; V<tspan style="-inkscape-font-specification:'sans-serif, Normal';font-variant-ligatures:normal;font-variant-position:sub;font-variant-caps:normal;font-variant-numeric:normal;font-variant-east-asian:normal">A</tspan> &lt; 15V</tspan></text><text xml:space="preserve" x="50.448" y="412.239" font-family="sans-serif" font-size="14.667" font-weight="400" letter-spacing="0" style="line-height:1.25" word-spacing="0"><tspan x="50.448" y="412.239">pour R = 800Ω</tspan></text><text xml:space="preserve" x="75.262" y="428.327" font-family="sans-serif" font-size="14.667" font-weight="400" letter-spacing="0" style="line-height:1.25" word-spacing="0"><tspan x="75.262" y="428.327">V<tspan style="-inkscape-font-specification:'sans-serif, Normal';font-variant-ligatures:normal;font-variant-position:sub;font-variant-caps:normal;font-variant-numeric:normal;font-variant-east-asian:normal">A</tspan> &lt; 0,4 V</tspan></text><text xml:space="preserve" x="3.822" y="13.513" font-family="sans-serif" font-size="14.667" font-weight="400" letter-spacing="0" style="line-height:1.25" word-spacing="0"><tspan x="3.822" y="13.513">En entrée (signaux Rx et PT).</tspan></text><path fill="none" stroke="#000" d="M655.591 22.367H400.296v426.52h255.295z"/><path fill="#fddc2c" stroke="#000" d="M528.715 103.352h-82.527v53.99h82.527z"/><text xml:space="preserve" x="463.72" y="135.847" font-family="sans-serif" font-size="14.667" font-weight="400" letter-spacing="0" style="line-height:1.25" word-spacing="0"><tspan x="463.72" y="135.847">Minitel</tspan></text><path fill="none" stroke="#000" d="M528.715 131.469h63.264v-7.363l3.954-2.054-8.181-2.053 8.18-2.054-8.18-2.054 8.18-2.054-8.18-2.053 8.18-2.054-8.18-2.054 8.18-2.053-8.18-2.054 8.18-2.054-8.18-2.053 8.18-2.054-8.18-2.054 8.18-2.053-3.953-2.054v-9.881"/><text xml:space="preserve" x="540.559" y="127.66" font-family="sans-serif" font-size="14.667" font-weight="400" letter-spacing="0" style="line-height:1.25" word-spacing="0"><tspan x="540.559" y="127.66">A</tspan></text><circle cx="-545.238" cy="131.273" r="1.363" stroke="#000" transform="scale(-1 1)"/><text xml:space="preserve" x="449.272" y="50.379" font-family="sans-serif" font-size="14.667" font-weight="400" letter-spacing="0" style="line-height:1.25" word-spacing="0"><tspan x="449.272" y="50.379">Test 3 : sortie état haut</tspan></text><text xml:space="preserve" x="444.528" y="261.441" font-family="sans-serif" font-size="14.667" font-weight="400" letter-spacing="0" style="line-height:1.25" word-spacing="0"><tspan x="444.528" y="261.441">Test 4 : sortie état bas</tspan></text><text xml:space="preserve" x="476.828" y="192.451" font-family="sans-serif" font-size="14.667" font-weight="400" letter-spacing="0" style="line-height:1.25" word-spacing="0"><tspan x="476.828" y="192.451">pour R = 200 kΩ</tspan></text><text xml:space="preserve" x="504.916" y="208.54" font-family="sans-serif" font-size="14.667" font-weight="400" letter-spacing="0" style="line-height:1.25" word-spacing="0"><tspan x="504.916" y="208.54">V<tspan style="-inkscape-font-specification:'sans-serif, Normal';font-variant-ligatures:normal;font-variant-position:sub;font-variant-caps:normal;font-variant-numeric:normal;font-variant-east-asian:normal">A</tspan> &gt; 2,5 V</tspan></text><text xml:space="preserve" x="473.423" y="412.239" font-family="sans-serif" font-size="14.667" font-weight="400" letter-spacing="0" style="line-height:1.25" word-spacing="0"><tspan x="473.423" y="412.239">pour R = 2,3 kΩ</tspan></text><text xml:space="preserve" x="502.222" y="428.327" font-family="sans-serif" font-size="14.667" font-weight="400" letter-spacing="0" style="line-height:1.25" word-spacing="0"><tspan x="502.222" y="428.327">V<tspan style="-inkscape-font-specification:'sans-serif, Normal';font-variant-ligatures:normal;font-variant-position:sub;font-variant-caps:normal;font-variant-numeric:normal;font-variant-east-asian:normal">A</tspan> &lt; 0,4 V</tspan></text><text xml:space="preserve" x="400.214" y="13.513" font-family="sans-serif" font-size="14.667" font-weight="400" letter-spacing="0" style="line-height:1.25" word-spacing="0"><tspan x="400.214" y="13.513">En sortie (signaux Tx et PT).</tspan></text><text xml:space="preserve" x="598.356" y="114.298" font-family="sans-serif" font-size="14.667" font-weight="400" letter-spacing="0" style="line-height:1.25" word-spacing="0"><tspan x="598.356" y="114.298">R</tspan></text><circle cx="-591.869" cy="80.552" r="1.363" stroke="#000" transform="scale(-1 1)"/><text xml:space="preserve" x="582.812" y="77.007" font-family="sans-serif" font-size="14.667" font-weight="400" letter-spacing="0" style="line-height:1.25" word-spacing="0"><tspan x="582.812" y="77.007">5V</tspan></text><path fill="#fddc2c" stroke="#000" d="M529.221 307.338h-82.527v53.99h82.527z"/><text xml:space="preserve" x="464.227" y="339.833" font-family="sans-serif" font-size="14.667" font-weight="400" letter-spacing="0" style="line-height:1.25" word-spacing="0"><tspan x="464.227" y="339.833">Minitel</tspan></text><path fill="none" stroke="#000" d="M529.221 335.454h63.264v-7.362l3.954-2.054-8.18-2.054 8.18-2.053-8.18-2.054 8.18-2.054-8.18-2.053 8.18-2.054-8.18-2.054 8.18-2.054-8.18-2.053 8.18-2.054-8.18-2.054 8.18-2.053-8.18-2.054 8.18-2.054-3.954-2.053v-9.881"/><text xml:space="preserve" x="541.066" y="331.645" font-family="sans-serif" font-size="14.667" font-weight="400" letter-spacing="0" style="line-height:1.25" word-spacing="0"><tspan x="541.066" y="331.645">A</tspan></text><circle cx="-545.744" cy="335.259" r="1.363" stroke="#000" transform="scale(-1 1)"/><text xml:space="preserve" x="598.862" y="318.284" font-family="sans-serif" font-size="14.667" font-weight="400" letter-spacing="0" style="line-height:1.25" word-spacing="0"><tspan x="598.862" y="318.284">R</tspan></text><circle cx="-592.376" cy="284.538" r="1.363" stroke="#000" transform="scale(-1 1)"/><text xml:space="preserve" x="583.319" y="280.993" font-family="sans-serif" font-size="14.667" font-weight="400" letter-spacing="0" style="line-height:1.25" word-spacing="0"><tspan x="583.319" y="280.993">5V</tspan></text></g></svg>