<svg xmlns="http://www.w3.org/2000/svg" width="285.001" height="282.609"><path fill="#43bfed" stroke="#000" stroke-width="1.002" d="M-22.897-280.607h284V1h-284Z" style="-inkscape-stroke:none" transform="translate(23.398 281.108)"/><path fill="none" stroke="#000" d="M284.201 138.05c-52.443 1.875-105.523 4.283-206.37 46.887"/><path fill="none" stroke="#000" d="M143.87 208.72c-12.84-42.901-15.2-50.94-17.004-78.812m-19.965.252c-6.29 22.563-21.29 30.993-36.46 39.148"/><g transform="translate(8.167 303.954)"><circle cx="37.642" cy="-109.408" r="35.973" fill="#f7ca16" stroke="#000" stroke-width="1.002" style="-inkscape-stroke:none"/><text xml:space="preserve" x="37.525" y="-102.559" font-family="sans-serif" font-size="14.667" font-weight="400" letter-spacing="0" style="line-height:1.25;text-align:center" text-anchor="middle" word-spacing="0"><tspan x="37.525" y="-102.559" rotate="0 0 0 0 0 0">Écran</tspan></text></g><path fill="none" stroke="#000" d="M284.611 152.533c-87.748 4.043-161.567 4.789-140.742 56.187"/><g transform="translate(.552 295.07)"><circle cx="147.43" cy="-56.1" r="35.973" fill="#f7ca16" stroke="#000" stroke-width="1.002" style="-inkscape-stroke:none"/><text xml:space="preserve" x="147.093" y="-50.6" font-family="sans-serif" font-size="14.667" font-weight="400" letter-spacing="0" style="line-height:1.25;text-align:center" text-anchor="middle" word-spacing="0"><tspan x="147.093" y="-50.6" rotate="0 0 0 0 0 0 0 0">Clavier</tspan></text></g><g transform="translate(9.436 299.512)"><circle cx="208.988" cy="-149.389" r="35.973" fill="#f7ca16" stroke="#000" stroke-width="1.002" style="-inkscape-stroke:none"/><text xml:space="preserve" x="208.651" y="-144.058" font-family="sans-serif" font-size="14.667" font-weight="400" letter-spacing="0" style="line-height:1.25;text-align:center" text-anchor="middle" word-spacing="0"><tspan x="208.651" y="-144.058" rotate="0 0 0 0 0 0">Prise</tspan></text></g><path fill="none" stroke="#000" d="M121.685 62.115v-41.96c0-9.764-15.134-9.327-15.134 0v42.64"/><g transform="translate(11.34 295.704)"><circle cx="103.642" cy="-199.524" r="35.973" fill="#f7ca16" stroke="#000" stroke-width="1.002" style="-inkscape-stroke:none"/><text xml:space="preserve" x="103.525" y="-194.023" font-family="sans-serif" font-size="14.667" font-weight="400" letter-spacing="0" style="line-height:1.25;text-align:center" text-anchor="middle" word-spacing="0"><tspan x="103.525" y="-194.023" rotate="0 0 0 0 0 0">Modem</tspan></text></g><path d="m93.985 147.72 5.568 5.381-7.52 2.007zm22.429 21.582 5.573-5.375 1.859 7.472zm11.68-23.032 5.118 5.8-7.658 1.41zm26.623 29.91-3.819-6.706 7.788.155zm111.157-26.656 7.041 3.291-6.445 4.321zm4.906-7.04-6.848-3.667 6.675-3.966zM121.707 35.548l3.969 6.62-7.79.017z"/></svg>