<svg xmlns="http://www.w3.org/2000/svg" width="285.001" height="282.609"><g transform="translate(23.398 281.108)"><path fill="#43bfed" stroke="#000" stroke-width="1.002" d="M-22.897-280.607h284V1h-284Z" style="-inkscape-stroke:none"/><path fill="none" stroke="#000" d="M261.042-132.11c-53.713 20.278-173.787 41.366-177.538-18.837"/><path fill="none" stroke="#000" d="M120.472-72.387c-12.84-42.902-15.2-50.94-17.004-78.813m-19.964.253c-2.876 22.654-18.15 37.043-35.191 50.253"/><circle cx="22.411" cy="-86.562" r="35.973" fill="#f1332a" stroke="#000" stroke-width="1.002" style="-inkscape-stroke:none"/><text xml:space="preserve" x="22.294" y="-79.713" font-family="sans-serif" font-size="14.667" font-weight="400" letter-spacing="0" style="line-height:1.25;text-align:center" text-anchor="middle" word-spacing="0"><tspan x="22.294" y="-79.713" rotate="0 0 0 0 0 0">Écran</tspan></text><path fill="none" stroke="#000" d="M261.213-148.883c-75.056 20.544-157.198 28.727-157.745-2.317"/><circle cx="124.584" cy="-42.139" r="35.973" fill="#f1332a" stroke="#000" stroke-width="1.002" style="-inkscape-stroke:none"/><text xml:space="preserve" x="124.247" y="-36.639" font-family="sans-serif" font-size="14.667" font-weight="400" letter-spacing="0" style="line-height:1.25;text-align:center" text-anchor="middle" word-spacing="0"><tspan x="124.247" y="-36.639" rotate="0 0 0 0 0 0 0 0">Clavier</tspan></text><circle cx="195.027" cy="-130.985" r="35.973" fill="#f1332a" stroke="#000" stroke-width="1.002" style="-inkscape-stroke:none"/><text xml:space="preserve" x="194.689" y="-125.654" font-family="sans-serif" font-size="14.667" font-weight="400" letter-spacing="0" style="line-height:1.25;text-align:center" text-anchor="middle" word-spacing="0"><tspan x="194.689" y="-125.654" rotate="0 0 0 0 0 0">Prise</tspan></text><path fill="none" stroke="#000" d="M98.287-218.993v-61.474m-15.134 0v62.154"/><circle cx="91.584" cy="-184.927" r="35.973" fill="#f1332a" stroke="#000" stroke-width="1.002" style="-inkscape-stroke:none"/><text xml:space="preserve" x="91.467" y="-179.427" font-family="sans-serif" font-size="14.667" font-weight="400" letter-spacing="0" style="line-height:1.25;text-align:center" text-anchor="middle" word-spacing="0"><tspan x="91.467" y="-179.427" rotate="0 0 0 0 0 0">Modem</tspan></text><path d="m72.26-130.44 6.343 4.44-7.112 3.163zm48.34 19.365 1.928-7.5 5.5 5.39zm8.952-24.898-1.254 7.64-5.957-4.878zm-18.36 31.708 5.484 5.456-7.55 1.905zm132.062-25.95 7.699 1.064-4.88 6.032zm6.974-12.075-7.607-1.573 5.275-5.698zM98.309-253.81l3.969 6.62-7.79.017zm-15.082 6.637-3.969-6.62 7.79-.017z"/></g></svg>